<?xml version="1.0" encoding="UTF-8"?>
<svg xmlns="http://www.w3.org/2000/svg" xmlns:xlink="http://www.w3.org/1999/xlink" width="432" height="504" viewBox="0 0 432 504">
<rect x="-43.2" y="-50.4" width="518.4" height="604.8" fill="rgb(100%, 100%, 100%)" fill-opacity="1"/>
<path fill="none" stroke-width="0.75" stroke-linecap="round" stroke-linejoin="round" stroke="rgb(66.27451%, 66.27451%, 66.27451%)" stroke-opacity="1" stroke-miterlimit="10" d="M 150.773438 436.183594 L 245.191406 424.984375 "/>
<path fill="none" stroke-width="0.75" stroke-linecap="round" stroke-linejoin="round" stroke="rgb(66.27451%, 66.27451%, 66.27451%)" stroke-opacity="1" stroke-miterlimit="10" d="M 38.214844 279.8125 L 127.773438 426.144531 "/>
<path fill="none" stroke-width="0.75" stroke-linecap="round" stroke-linejoin="round" stroke="rgb(66.27451%, 66.27451%, 66.27451%)" stroke-opacity="1" stroke-miterlimit="10" d="M 386.570312 384.355469 L 148.703125 435.132812 "/>
<path fill="none" stroke-width="0.75" stroke-linecap="round" stroke-linejoin="round" stroke="rgb(66.27451%, 66.27451%, 66.27451%)" stroke-opacity="1" stroke-miterlimit="10" d="M 148.398438 260.789062 L 136.105469 424.132812 "/>
<path fill="none" stroke-width="0.75" stroke-linecap="round" stroke-linejoin="round" stroke="rgb(66.27451%, 66.27451%, 66.27451%)" stroke-opacity="1" stroke-miterlimit="10" d="M 243.894531 331.785156 L 145.042969 428.300781 "/>
<path fill="none" stroke-width="0.75" stroke-linecap="round" stroke-linejoin="round" stroke="rgb(66.27451%, 66.27451%, 66.27451%)" stroke-opacity="1" stroke-miterlimit="10" d="M 347.292969 251.304688 L 145.53125 428.828125 "/>
<path fill="none" stroke-width="0.75" stroke-linecap="round" stroke-linejoin="round" stroke="rgb(66.27451%, 66.27451%, 66.27451%)" stroke-opacity="1" stroke-miterlimit="10" d="M 227.871094 196.628906 L 140.0625 425.023438 "/>
<path fill="none" stroke-width="0.75" stroke-linecap="round" stroke-linejoin="round" stroke="rgb(66.27451%, 66.27451%, 66.27451%)" stroke-opacity="1" stroke-miterlimit="10" d="M 243.332031 425.207031 L 148.914062 436.402344 "/>
<path fill="none" stroke-width="0.75" stroke-linecap="round" stroke-linejoin="round" stroke="rgb(66.27451%, 66.27451%, 66.27451%)" stroke-opacity="1" stroke-miterlimit="10" d="M 126.796875 424.546875 L 37.238281 278.214844 "/>
<path fill="none" stroke-width="0.75" stroke-linecap="round" stroke-linejoin="round" stroke="rgb(66.27451%, 66.27451%, 66.27451%)" stroke-opacity="1" stroke-miterlimit="10" d="M 153.386719 104.773438 L 38.425781 255.226562 "/>
<path fill="none" stroke-width="0.75" stroke-linecap="round" stroke-linejoin="round" stroke="rgb(66.27451%, 66.27451%, 66.27451%)" stroke-opacity="1" stroke-miterlimit="10" d="M 134.007812 247.78125 L 43.691406 263.867188 "/>
<path fill="none" stroke-width="0.75" stroke-linecap="round" stroke-linejoin="round" stroke="rgb(66.27451%, 66.27451%, 66.27451%)" stroke-opacity="1" stroke-miterlimit="10" d="M 239.835938 317.015625 L 43.515625 269.589844 "/>
<path fill="none" stroke-width="0.75" stroke-linecap="round" stroke-linejoin="round" stroke="rgb(66.27451%, 66.27451%, 66.27451%)" stroke-opacity="1" stroke-miterlimit="10" d="M 218.929688 187.921875 L 42.84375 260.96875 "/>
<path fill="none" stroke-width="0.75" stroke-linecap="round" stroke-linejoin="round" stroke="rgb(66.27451%, 66.27451%, 66.27451%)" stroke-opacity="1" stroke-miterlimit="10" d="M 245.996094 414.394531 L 41.460938 274.203125 "/>
<path fill="none" stroke-width="0.75" stroke-linecap="round" stroke-linejoin="round" stroke="rgb(66.27451%, 66.27451%, 66.27451%)" stroke-opacity="1" stroke-miterlimit="10" d="M 39.5625 253.738281 L 154.523438 103.285156 "/>
<path fill="none" stroke-width="0.75" stroke-linecap="round" stroke-linejoin="round" stroke="rgb(66.27451%, 66.27451%, 66.27451%)" stroke-opacity="1" stroke-miterlimit="10" d="M 167.402344 107.398438 L 255.160156 409.941406 "/>
<path fill="none" stroke-width="0.75" stroke-linecap="round" stroke-linejoin="round" stroke="rgb(66.27451%, 66.27451%, 66.27451%)" stroke-opacity="1" stroke-miterlimit="10" d="M 361.167969 67.882812 L 176.84375 90.5 "/>
<path fill="none" stroke-width="0.75" stroke-linecap="round" stroke-linejoin="round" stroke="rgb(66.27451%, 66.27451%, 66.27451%)" stroke-opacity="1" stroke-miterlimit="10" d="M 391.957031 368.863281 L 171.890625 102.949219 "/>
<path fill="none" stroke-width="0.75" stroke-linecap="round" stroke-linejoin="round" stroke="rgb(66.27451%, 66.27451%, 66.27451%)" stroke-opacity="1" stroke-miterlimit="10" d="M 150.96875 229.242188 L 161.773438 106.097656 "/>
<path fill="none" stroke-width="0.75" stroke-linecap="round" stroke-linejoin="round" stroke="rgb(66.27451%, 66.27451%, 66.27451%)" stroke-opacity="1" stroke-miterlimit="10" d="M 249.296875 306.054688 L 168.214844 105.140625 "/>
<path fill="none" stroke-width="0.75" stroke-linecap="round" stroke-linejoin="round" stroke="rgb(66.27451%, 66.27451%, 66.27451%)" stroke-opacity="1" stroke-miterlimit="10" d="M 223.761719 169.421875 L 171.621094 103.164062 "/>
<path fill="none" stroke-width="0.75" stroke-linecap="round" stroke-linejoin="round" stroke="rgb(66.27451%, 66.27451%, 66.27451%)" stroke-opacity="1" stroke-miterlimit="10" d="M 178.703125 90.273438 L 363.027344 67.652344 "/>
<path fill="none" stroke-width="0.75" stroke-linecap="round" stroke-linejoin="round" stroke="rgb(66.27451%, 66.27451%, 66.27451%)" stroke-opacity="1" stroke-miterlimit="10" d="M 162.019531 235.214844 L 365.914062 74.589844 "/>
<path fill="none" stroke-width="0.75" stroke-linecap="round" stroke-linejoin="round" stroke="rgb(66.27451%, 66.27451%, 66.27451%)" stroke-opacity="1" stroke-miterlimit="10" d="M 360.765625 225.105469 L 375.472656 79.835938 "/>
<path fill="none" stroke-width="0.75" stroke-linecap="round" stroke-linejoin="round" stroke="rgb(66.27451%, 66.27451%, 66.27451%)" stroke-opacity="1" stroke-miterlimit="10" d="M 264.003906 408.3125 L 372.507812 79.207031 "/>
<path fill="none" stroke-width="0.75" stroke-linecap="round" stroke-linejoin="round" stroke="rgb(66.27451%, 66.27451%, 66.27451%)" stroke-opacity="1" stroke-miterlimit="10" d="M 386.871094 385.542969 L 272.429688 419.386719 "/>
<path fill="none" stroke-width="0.75" stroke-linecap="round" stroke-linejoin="round" stroke="rgb(66.27451%, 66.27451%, 66.27451%)" stroke-opacity="1" stroke-miterlimit="10" d="M 269.859375 326.746094 L 389.140625 375.75 "/>
<path fill="none" stroke-width="0.75" stroke-linecap="round" stroke-linejoin="round" stroke="rgb(66.27451%, 66.27451%, 66.27451%)" stroke-opacity="1" stroke-miterlimit="10" d="M 363.800781 255.984375 L 397.964844 367.710938 "/>
<path fill="none" stroke-width="0.75" stroke-linecap="round" stroke-linejoin="round" stroke="rgb(66.27451%, 66.27451%, 66.27451%)" stroke-opacity="1" stroke-miterlimit="10" d="M 274.226562 418.855469 L 388.664062 385.011719 "/>
<path fill="none" stroke-width="0.75" stroke-linecap="round" stroke-linejoin="round" stroke="rgb(66.27451%, 66.27451%, 66.27451%)" stroke-opacity="1" stroke-miterlimit="10" d="M 45.535156 263.539062 L 135.847656 247.453125 "/>
<path fill="none" stroke-width="0.75" stroke-linecap="round" stroke-linejoin="round" stroke="rgb(66.27451%, 66.27451%, 66.27451%)" stroke-opacity="1" stroke-miterlimit="10" d="M 161.609375 107.964844 L 150.804688 231.105469 "/>
<path fill="none" stroke-width="0.75" stroke-linecap="round" stroke-linejoin="round" stroke="rgb(66.27451%, 66.27451%, 66.27451%)" stroke-opacity="1" stroke-miterlimit="10" d="M 388.113281 373.546875 L 161.871094 251.625 "/>
<path fill="none" stroke-width="0.75" stroke-linecap="round" stroke-linejoin="round" stroke="rgb(66.27451%, 66.27451%, 66.27451%)" stroke-opacity="1" stroke-miterlimit="10" d="M 242.359375 311.511719 L 160.925781 253.136719 "/>
<path fill="none" stroke-width="0.75" stroke-linecap="round" stroke-linejoin="round" stroke="rgb(66.27451%, 66.27451%, 66.27451%)" stroke-opacity="1" stroke-miterlimit="10" d="M 343.351562 241.164062 L 163.539062 244.730469 "/>
<path fill="none" stroke-width="0.75" stroke-linecap="round" stroke-linejoin="round" stroke="rgb(66.27451%, 66.27451%, 66.27451%)" stroke-opacity="1" stroke-miterlimit="10" d="M 220.902344 191.371094 L 160.738281 236.621094 "/>
<path fill="none" stroke-width="0.75" stroke-linecap="round" stroke-linejoin="round" stroke="rgb(66.27451%, 66.27451%, 66.27451%)" stroke-opacity="1" stroke-miterlimit="10" d="M 250.769531 409.855469 L 156.886719 256.898438 "/>
<path fill="none" stroke-width="0.75" stroke-linecap="round" stroke-linejoin="round" stroke="rgb(66.27451%, 66.27451%, 66.27451%)" stroke-opacity="1" stroke-miterlimit="10" d="M 146.378906 426.992188 L 245.234375 330.476562 "/>
<path fill="none" stroke-width="0.75" stroke-linecap="round" stroke-linejoin="round" stroke="rgb(66.27451%, 66.27451%, 66.27451%)" stroke-opacity="1" stroke-miterlimit="10" d="M 370.058594 80.234375 L 261.234375 308.136719 "/>
<path fill="none" stroke-width="0.75" stroke-linecap="round" stroke-linejoin="round" stroke="rgb(66.27451%, 66.27451%, 66.27451%)" stroke-opacity="1" stroke-miterlimit="10" d="M 387.410156 375.039062 L 268.125 326.03125 "/>
<path fill="none" stroke-width="0.75" stroke-linecap="round" stroke-linejoin="round" stroke="rgb(66.27451%, 66.27451%, 66.27451%)" stroke-opacity="1" stroke-miterlimit="10" d="M 162.449219 254.226562 L 243.878906 312.601562 "/>
<path fill="none" stroke-width="0.75" stroke-linecap="round" stroke-linejoin="round" stroke="rgb(66.27451%, 66.27451%, 66.27451%)" stroke-opacity="1" stroke-miterlimit="10" d="M 255.808594 336.542969 L 258.527344 409.398438 "/>
<path fill="none" stroke-width="0.75" stroke-linecap="round" stroke-linejoin="round" stroke="rgb(66.27451%, 66.27451%, 66.27451%)" stroke-opacity="1" stroke-miterlimit="10" d="M 235.988281 197.496094 L 253.070312 306.945312 "/>
<path fill="none" stroke-width="0.75" stroke-linecap="round" stroke-linejoin="round" stroke="rgb(66.27451%, 66.27451%, 66.27451%)" stroke-opacity="1" stroke-miterlimit="10" d="M 258.457031 407.527344 L 255.742188 334.675781 "/>
<path fill="none" stroke-width="0.75" stroke-linecap="round" stroke-linejoin="round" stroke="rgb(66.27451%, 66.27451%, 66.27451%)" stroke-opacity="1" stroke-miterlimit="10" d="M 146.9375 427.59375 L 348.699219 250.066406 "/>
<path fill="none" stroke-width="0.75" stroke-linecap="round" stroke-linejoin="round" stroke="rgb(66.27451%, 66.27451%, 66.27451%)" stroke-opacity="1" stroke-miterlimit="10" d="M 45.730469 265.09375 L 345.261719 241.925781 "/>
<path fill="none" stroke-width="0.75" stroke-linecap="round" stroke-linejoin="round" stroke="rgb(66.27451%, 66.27451%, 66.27451%)" stroke-opacity="1" stroke-miterlimit="10" d="M 375.28125 81.699219 L 360.578125 226.96875 "/>
<path fill="none" stroke-width="0.75" stroke-linecap="round" stroke-linejoin="round" stroke="rgb(66.27451%, 66.27451%, 66.27451%)" stroke-opacity="1" stroke-miterlimit="10" d="M 397.417969 365.917969 L 363.253906 254.195312 "/>
<path fill="none" stroke-width="0.75" stroke-linecap="round" stroke-linejoin="round" stroke="rgb(66.27451%, 66.27451%, 66.27451%)" stroke-opacity="1" stroke-miterlimit="10" d="M 165.410156 244.691406 L 345.222656 241.128906 "/>
<path fill="none" stroke-width="0.75" stroke-linecap="round" stroke-linejoin="round" stroke="rgb(66.27451%, 66.27451%, 66.27451%)" stroke-opacity="1" stroke-miterlimit="10" d="M 267.769531 311.085938 L 348.109375 249.351562 "/>
<path fill="none" stroke-width="0.75" stroke-linecap="round" stroke-linejoin="round" stroke="rgb(66.27451%, 66.27451%, 66.27451%)" stroke-opacity="1" stroke-miterlimit="10" d="M 247.875 188.585938 L 346.542969 234.917969 "/>
<path fill="none" stroke-width="0.75" stroke-linecap="round" stroke-linejoin="round" stroke="rgb(66.27451%, 66.27451%, 66.27451%)" stroke-opacity="1" stroke-miterlimit="10" d="M 44.570312 260.25 L 220.660156 187.203125 "/>
<path fill="none" stroke-width="0.75" stroke-linecap="round" stroke-linejoin="round" stroke="rgb(66.27451%, 66.27451%, 66.27451%)" stroke-opacity="1" stroke-miterlimit="10" d="M 172.78125 104.636719 L 224.921875 170.894531 "/>
<path fill="none" stroke-width="0.75" stroke-linecap="round" stroke-linejoin="round" stroke="rgb(66.27451%, 66.27451%, 66.27451%)" stroke-opacity="1" stroke-miterlimit="10" d="M 391.824219 368.972656 L 242.5625 192.511719 "/>
<path fill="none" stroke-width="0.75" stroke-linecap="round" stroke-linejoin="round" stroke="rgb(66.27451%, 66.27451%, 66.27451%)" stroke-opacity="1" stroke-miterlimit="10" d="M 344.847656 234.125 L 246.179688 187.789062 "/>
<path fill="none" stroke-width="0.75" stroke-linecap="round" stroke-linejoin="round" stroke="rgb(66.27451%, 66.27451%, 66.27451%)" stroke-opacity="1" stroke-miterlimit="10" d="M 235.210938 197.597656 L 257.582031 409.464844 "/>
<path fill-rule="nonzero" fill="rgb(66.27451%, 66.27451%, 66.27451%)" fill-opacity="1" stroke-width="0.75" stroke-linecap="round" stroke-linejoin="round" stroke="rgb(66.27451%, 66.27451%, 66.27451%)" stroke-opacity="1" stroke-miterlimit="10" d="M 227.472656 434.511719 L 228.339844 433.671875 L 229.261719 432.828125 L 230.25 431.976562 L 231.316406 431.113281 L 232.484375 430.242188 L 233.789062 429.351562 L 235.277344 428.4375 L 237.058594 427.492188 L 239.410156 426.480469 L 245.199219 425.058594 L 245.183594 424.914062 L 239.21875 424.886719 L 236.699219 424.449219 L 234.742188 423.945312 L 233.082031 423.40625 L 231.609375 422.847656 L 230.269531 422.269531 L 229.027344 421.683594 L 227.867188 421.085938 L 226.773438 420.480469 L 225.734375 419.867188 Z M 227.472656 434.511719 "/>
<path fill-rule="nonzero" fill="rgb(66.27451%, 66.27451%, 66.27451%)" fill-opacity="1" stroke-width="0.75" stroke-linecap="round" stroke-linejoin="round" stroke="rgb(66.27451%, 66.27451%, 66.27451%)" stroke-opacity="1" stroke-miterlimit="10" d="M 111.710938 414.027344 L 112.835938 414.464844 L 113.988281 414.949219 L 115.175781 415.492188 L 116.40625 416.101562 L 117.6875 416.796875 L 119.039062 417.609375 L 120.492188 418.582031 L 122.097656 419.804688 L 124 421.515625 L 127.710938 426.183594 L 127.835938 426.109375 L 125.367188 420.675781 L 124.710938 418.203125 L 124.351562 416.21875 L 124.144531 414.484375 L 124.039062 412.910156 L 124 411.453125 L 124.015625 410.082031 L 124.074219 408.777344 L 124.167969 407.53125 L 124.289062 406.328125 Z M 111.710938 414.027344 "/>
<path fill-rule="nonzero" fill="rgb(66.27451%, 66.27451%, 66.27451%)" fill-opacity="1" stroke-width="0.75" stroke-linecap="round" stroke-linejoin="round" stroke="rgb(66.27451%, 66.27451%, 66.27451%)" stroke-opacity="1" stroke-miterlimit="10" d="M 165.472656 424.015625 L 164.683594 424.929688 L 163.84375 425.855469 L 162.9375 426.796875 L 161.953125 427.753906 L 160.871094 428.730469 L 159.65625 429.734375 L 158.257812 430.78125 L 156.570312 431.886719 L 154.324219 433.113281 L 148.6875 435.0625 L 148.71875 435.203125 L 154.660156 434.683594 L 157.210938 434.882812 L 159.203125 435.207031 L 160.90625 435.589844 L 162.425781 436.011719 L 163.8125 436.460938 L 165.101562 436.933594 L 166.3125 437.421875 L 167.457031 437.921875 L 168.550781 438.4375 Z M 165.472656 424.015625 "/>
<path fill-rule="nonzero" fill="rgb(66.27451%, 66.27451%, 66.27451%)" fill-opacity="1" stroke-width="0.75" stroke-linecap="round" stroke-linejoin="round" stroke="rgb(66.27451%, 66.27451%, 66.27451%)" stroke-opacity="1" stroke-miterlimit="10" d="M 130.15625 404.910156 L 130.8125 405.925781 L 131.464844 406.992188 L 132.113281 408.125 L 132.753906 409.339844 L 133.386719 410.652344 L 134.007812 412.101562 L 134.617188 413.738281 L 135.203125 415.667969 L 135.75 418.167969 L 136.03125 424.128906 L 136.175781 424.136719 L 137.347656 418.289062 L 138.261719 415.898438 L 139.128906 414.078125 L 139.976562 412.550781 L 140.808594 411.210938 L 141.632812 410.007812 L 142.449219 408.902344 L 143.257812 407.878906 L 144.0625 406.921875 L 144.859375 406.019531 Z M 130.15625 404.910156 "/>
<path fill-rule="nonzero" fill="rgb(66.27451%, 66.27451%, 66.27451%)" fill-opacity="1" stroke-width="0.75" stroke-linecap="round" stroke-linejoin="round" stroke="rgb(66.27451%, 66.27451%, 66.27451%)" stroke-opacity="1" stroke-miterlimit="10" d="M 153.285156 409.945312 L 153.109375 411.140625 L 152.890625 412.371094 L 152.628906 413.648438 L 152.304688 414.984375 L 151.914062 416.386719 L 151.421875 417.886719 L 150.796875 419.515625 L 149.960938 421.355469 L 148.714844 423.589844 L 144.992188 428.246094 L 145.089844 428.351562 L 149.835938 424.738281 L 152.101562 423.546875 L 153.957031 422.753906 L 155.601562 422.167969 L 157.113281 421.714844 L 158.527344 421.355469 L 159.867188 421.066406 L 161.152344 420.832031 L 162.390625 420.644531 L 163.585938 420.496094 Z M 153.285156 409.945312 "/>
<path fill-rule="nonzero" fill="rgb(66.27451%, 66.27451%, 66.27451%)" fill-opacity="1" stroke-width="0.75" stroke-linecap="round" stroke-linejoin="round" stroke="rgb(66.27451%, 66.27451%, 66.27451%)" stroke-opacity="1" stroke-miterlimit="10" d="M 154.714844 410.929688 L 154.476562 412.109375 L 154.195312 413.328125 L 153.867188 414.59375 L 153.476562 415.90625 L 153.011719 417.289062 L 152.445312 418.761719 L 151.734375 420.359375 L 150.804688 422.148438 L 149.445312 424.316406 L 145.484375 428.773438 L 145.582031 428.882812 L 150.507812 425.519531 L 152.828125 424.449219 L 154.726562 423.753906 L 156.398438 423.253906 L 157.929688 422.878906 L 159.359375 422.59375 L 160.714844 422.375 L 162.007812 422.207031 L 163.253906 422.085938 L 164.457031 422 Z M 154.714844 410.929688 "/>
<path fill-rule="nonzero" fill="rgb(66.27451%, 66.27451%, 66.27451%)" fill-opacity="1" stroke-width="0.75" stroke-linecap="round" stroke-linejoin="round" stroke="rgb(66.27451%, 66.27451%, 66.27451%)" stroke-opacity="1" stroke-miterlimit="10" d="M 139.898438 404.902344 L 140.238281 406.0625 L 140.554688 407.273438 L 140.847656 408.542969 L 141.113281 409.890625 L 141.339844 411.332031 L 141.519531 412.898438 L 141.632812 414.640625 L 141.636719 416.660156 L 141.441406 419.210938 L 139.996094 424.996094 L 140.132812 425.046875 L 142.9375 419.785156 L 144.5 417.757812 L 145.855469 416.265625 L 147.105469 415.046875 L 148.289062 414.003906 L 149.421875 413.085938 L 150.523438 412.261719 L 151.589844 411.515625 L 152.636719 410.828125 L 153.664062 410.195312 Z M 139.898438 404.902344 "/>
<path fill-rule="nonzero" fill="rgb(66.27451%, 66.27451%, 66.27451%)" fill-opacity="1" stroke-width="0.75" stroke-linecap="round" stroke-linejoin="round" stroke="rgb(66.27451%, 66.27451%, 66.27451%)" stroke-opacity="1" stroke-miterlimit="10" d="M 166.632812 426.878906 L 165.765625 427.714844 L 164.84375 428.558594 L 163.855469 429.414062 L 162.789062 430.273438 L 161.621094 431.148438 L 160.316406 432.039062 L 158.828125 432.949219 L 157.046875 433.894531 L 154.699219 434.910156 L 148.90625 436.332031 L 148.921875 436.476562 L 154.886719 436.503906 L 157.40625 436.9375 L 159.363281 437.441406 L 161.023438 437.980469 L 162.496094 438.539062 L 163.835938 439.117188 L 165.078125 439.707031 L 166.238281 440.304688 L 167.332031 440.910156 L 168.371094 441.519531 Z M 166.632812 426.878906 "/>
<path fill-rule="nonzero" fill="rgb(66.27451%, 66.27451%, 66.27451%)" fill-opacity="1" stroke-width="0.75" stroke-linecap="round" stroke-linejoin="round" stroke="rgb(66.27451%, 66.27451%, 66.27451%)" stroke-opacity="1" stroke-miterlimit="10" d="M 53.296875 290.332031 L 52.171875 289.894531 L 51.019531 289.410156 L 49.832031 288.867188 L 48.605469 288.257812 L 47.320312 287.5625 L 45.96875 286.75 L 44.519531 285.78125 L 42.914062 284.554688 L 41.011719 282.84375 L 37.296875 278.175781 L 37.175781 278.253906 L 39.644531 283.683594 L 40.300781 286.15625 L 40.660156 288.140625 L 40.867188 289.875 L 40.972656 291.449219 L 41.007812 292.90625 L 40.992188 294.277344 L 40.933594 295.582031 L 40.84375 296.828125 L 40.722656 298.03125 Z M 53.296875 290.332031 "/>
<path fill-rule="nonzero" fill="rgb(66.27451%, 66.27451%, 66.27451%)" fill-opacity="1" stroke-width="0.75" stroke-linecap="round" stroke-linejoin="round" stroke="rgb(66.27451%, 66.27451%, 66.27451%)" stroke-opacity="1" stroke-miterlimit="10" d="M 43.933594 235.875 L 43.929688 237.082031 L 43.894531 238.332031 L 43.816406 239.632812 L 43.691406 241 L 43.503906 242.449219 L 43.234375 244 L 42.851562 245.707031 L 42.289062 247.644531 L 41.382812 250.035156 L 38.367188 255.183594 L 38.484375 255.269531 L 42.65625 251.007812 L 44.726562 249.503906 L 46.449219 248.453125 L 47.992188 247.636719 L 49.417969 246.96875 L 50.765625 246.40625 L 52.050781 245.925781 L 53.289062 245.511719 L 54.484375 245.148438 L 55.648438 244.828125 Z M 43.933594 235.875 "/>
<path fill-rule="nonzero" fill="rgb(66.27451%, 66.27451%, 66.27451%)" fill-opacity="1" stroke-width="0.75" stroke-linecap="round" stroke-linejoin="round" stroke="rgb(66.27451%, 66.27451%, 66.27451%)" stroke-opacity="1" stroke-miterlimit="10" d="M 60.828125 253.324219 L 60.011719 254.214844 L 59.136719 255.109375 L 58.203125 256.019531 L 57.1875 256.941406 L 56.070312 257.882812 L 54.824219 258.84375 L 53.386719 259.839844 L 51.664062 260.890625 L 49.378906 262.039062 L 43.679688 263.796875 L 43.703125 263.9375 L 49.660156 263.617188 L 52.203125 263.90625 L 54.183594 264.296875 L 55.871094 264.738281 L 57.375 265.210938 L 58.746094 265.707031 L 60.019531 266.222656 L 61.210938 266.75 L 62.339844 267.292969 L 63.414062 267.84375 Z M 60.828125 253.324219 "/>
<path fill-rule="nonzero" fill="rgb(66.27451%, 66.27451%, 66.27451%)" fill-opacity="1" stroke-width="0.75" stroke-linecap="round" stroke-linejoin="round" stroke="rgb(66.27451%, 66.27451%, 66.27451%)" stroke-opacity="1" stroke-miterlimit="10" d="M 63.445312 266.820312 L 62.339844 267.304688 L 61.179688 267.773438 L 59.957031 268.230469 L 58.65625 268.667969 L 57.257812 269.078125 L 55.726562 269.460938 L 54.015625 269.796875 L 52.015625 270.066406 L 49.460938 270.199219 L 43.535156 269.519531 L 43.5 269.660156 L 49.082031 271.757812 L 51.292969 273.046875 L 52.953125 274.195312 L 54.324219 275.277344 L 55.507812 276.316406 L 56.566406 277.324219 L 57.523438 278.304688 L 58.402344 279.269531 L 59.21875 280.21875 L 59.980469 281.152344 Z M 63.445312 266.820312 "/>
<path fill-rule="nonzero" fill="rgb(66.27451%, 66.27451%, 66.27451%)" fill-opacity="1" stroke-width="0.75" stroke-linecap="round" stroke-linejoin="round" stroke="rgb(66.27451%, 66.27451%, 66.27451%)" stroke-opacity="1" stroke-miterlimit="10" d="M 57.308594 246.984375 L 56.699219 248.027344 L 56.042969 249.089844 L 55.324219 250.179688 L 54.53125 251.296875 L 53.644531 252.457031 L 52.632812 253.667969 L 51.445312 254.949219 L 49.988281 256.34375 L 48.003906 257.957031 L 42.816406 260.902344 L 42.871094 261.035156 L 48.617188 259.441406 L 51.160156 259.175781 L 53.179688 259.128906 L 54.925781 259.195312 L 56.496094 259.332031 L 57.941406 259.523438 L 59.292969 259.753906 L 60.574219 260.011719 L 61.792969 260.296875 L 62.957031 260.605469 Z M 57.308594 246.984375 "/>
<path fill-rule="nonzero" fill="rgb(66.27451%, 66.27451%, 66.27451%)" fill-opacity="1" stroke-width="0.75" stroke-linecap="round" stroke-linejoin="round" stroke="rgb(66.27451%, 66.27451%, 66.27451%)" stroke-opacity="1" stroke-miterlimit="10" d="M 61.070312 278.703125 L 59.867188 278.761719 L 58.617188 278.792969 L 57.3125 278.78125 L 55.941406 278.726562 L 54.484375 278.617188 L 52.921875 278.429688 L 51.199219 278.132812 L 49.234375 277.671875 L 46.800781 276.886719 L 41.503906 274.144531 L 41.421875 274.261719 L 45.890625 278.210938 L 47.503906 280.199219 L 48.640625 281.863281 L 49.535156 283.363281 L 50.277344 284.757812 L 50.90625 286.074219 L 51.453125 287.332031 L 51.929688 288.546875 L 52.355469 289.722656 L 52.734375 290.867188 Z M 61.070312 278.703125 "/>
<path fill-rule="nonzero" fill="rgb(66.27451%, 66.27451%, 66.27451%)" fill-opacity="1" stroke-width="0.75" stroke-linecap="round" stroke-linejoin="round" stroke="rgb(66.27451%, 66.27451%, 66.27451%)" stroke-opacity="1" stroke-miterlimit="10" d="M 149.015625 122.636719 L 149.019531 121.429688 L 149.054688 120.179688 L 149.128906 118.878906 L 149.257812 117.511719 L 149.441406 116.066406 L 149.710938 114.511719 L 150.09375 112.808594 L 150.65625 110.867188 L 151.566406 108.476562 L 154.578125 103.332031 L 154.464844 103.242188 L 150.289062 107.503906 L 148.222656 109.007812 L 146.5 110.058594 L 144.957031 110.878906 L 143.527344 111.542969 L 142.179688 112.105469 L 140.894531 112.585938 L 139.65625 113 L 138.460938 113.363281 L 137.296875 113.683594 Z M 149.015625 122.636719 "/>
<path fill-rule="nonzero" fill="rgb(66.27451%, 66.27451%, 66.27451%)" fill-opacity="1" stroke-width="0.75" stroke-linecap="round" stroke-linejoin="round" stroke="rgb(66.27451%, 66.27451%, 66.27451%)" stroke-opacity="1" stroke-miterlimit="10" d="M 242.867188 394.015625 L 243.835938 394.734375 L 244.820312 395.507812 L 245.820312 396.34375 L 246.847656 397.253906 L 247.898438 398.265625 L 248.988281 399.402344 L 250.132812 400.722656 L 251.359375 402.328125 L 252.742188 404.480469 L 255.09375 409.960938 L 255.230469 409.921875 L 254.28125 404.03125 L 254.300781 401.472656 L 254.476562 399.464844 L 254.738281 397.734375 L 255.050781 396.191406 L 255.398438 394.773438 L 255.777344 393.453125 L 256.175781 392.210938 L 256.59375 391.035156 L 257.027344 389.90625 Z M 242.867188 394.015625 "/>
<path fill-rule="nonzero" fill="rgb(66.27451%, 66.27451%, 66.27451%)" fill-opacity="1" stroke-width="0.75" stroke-linecap="round" stroke-linejoin="round" stroke="rgb(66.27451%, 66.27451%, 66.27451%)" stroke-opacity="1" stroke-miterlimit="10" d="M 194.527344 80.902344 L 193.660156 81.742188 L 192.742188 82.59375 L 191.757812 83.449219 L 190.695312 84.3125 L 189.527344 85.191406 L 188.230469 86.085938 L 186.746094 87.003906 L 184.964844 87.960938 L 182.621094 88.984375 L 176.835938 90.429688 L 176.851562 90.570312 L 182.816406 90.574219 L 185.339844 91 L 187.296875 91.496094 L 188.960938 92.027344 L 190.433594 92.582031 L 191.777344 93.152344 L 193.019531 93.734375 L 194.183594 94.328125 L 195.28125 94.929688 L 196.320312 95.539062 Z M 194.527344 80.902344 "/>
<path fill-rule="nonzero" fill="rgb(66.27451%, 66.27451%, 66.27451%)" fill-opacity="1" stroke-width="0.75" stroke-linecap="round" stroke-linejoin="round" stroke="rgb(66.27451%, 66.27451%, 66.27451%)" stroke-opacity="1" stroke-miterlimit="10" d="M 189.503906 112.671875 L 188.332031 112.394531 L 187.121094 112.078125 L 185.867188 111.710938 L 184.566406 111.28125 L 183.195312 110.773438 L 181.742188 110.164062 L 180.171875 109.40625 L 178.40625 108.421875 L 176.28125 107 L 171.945312 102.902344 L 171.835938 102.996094 L 175.046875 108.019531 L 176.046875 110.375 L 176.683594 112.289062 L 177.132812 113.976562 L 177.460938 115.519531 L 177.703125 116.957031 L 177.882812 118.320312 L 178.011719 119.617188 L 178.09375 120.867188 L 178.144531 122.070312 Z M 189.503906 112.671875 "/>
<path fill-rule="nonzero" fill="rgb(66.27451%, 66.27451%, 66.27451%)" fill-opacity="1" stroke-width="0.75" stroke-linecap="round" stroke-linejoin="round" stroke="rgb(66.27451%, 66.27451%, 66.27451%)" stroke-opacity="1" stroke-miterlimit="10" d="M 167.484375 125.390625 L 166.839844 124.371094 L 166.199219 123.296875 L 165.566406 122.15625 L 164.941406 120.933594 L 164.324219 119.609375 L 163.71875 118.15625 L 163.132812 116.511719 L 162.570312 114.574219 L 162.054688 112.066406 L 161.847656 106.105469 L 161.703125 106.09375 L 160.457031 111.925781 L 159.515625 114.304688 L 158.625 116.117188 L 157.757812 117.632812 L 156.910156 118.960938 L 156.070312 120.15625 L 155.242188 121.25 L 154.421875 122.261719 L 153.605469 123.210938 L 152.792969 124.101562 Z M 167.484375 125.390625 "/>
<path fill-rule="nonzero" fill="rgb(66.27451%, 66.27451%, 66.27451%)" fill-opacity="1" stroke-width="0.75" stroke-linecap="round" stroke-linejoin="round" stroke="rgb(66.27451%, 66.27451%, 66.27451%)" stroke-opacity="1" stroke-miterlimit="10" d="M 182.058594 119.738281 L 181.023438 119.121094 L 179.964844 118.453125 L 178.882812 117.722656 L 177.769531 116.917969 L 176.621094 116.019531 L 175.421875 115 L 174.152344 113.800781 L 172.769531 112.328125 L 171.175781 110.328125 L 168.28125 105.113281 L 168.148438 105.164062 L 169.6875 110.929688 L 169.929688 113.476562 L 169.953125 115.492188 L 169.871094 117.238281 L 169.71875 118.808594 L 169.511719 120.25 L 169.269531 121.601562 L 169 122.878906 L 168.703125 124.09375 L 168.382812 125.257812 Z M 182.058594 119.738281 "/>
<path fill-rule="nonzero" fill="rgb(66.27451%, 66.27451%, 66.27451%)" fill-opacity="1" stroke-width="0.75" stroke-linecap="round" stroke-linejoin="round" stroke="rgb(66.27451%, 66.27451%, 66.27451%)" stroke-opacity="1" stroke-miterlimit="10" d="M 188.992188 113.316406 L 187.824219 113.011719 L 186.625 112.667969 L 185.382812 112.269531 L 184.089844 111.804688 L 182.734375 111.265625 L 181.296875 110.617188 L 179.742188 109.824219 L 178.003906 108.796875 L 175.914062 107.320312 L 171.679688 103.121094 L 171.566406 103.210938 L 174.652344 108.3125 L 175.597656 110.691406 L 176.1875 112.621094 L 176.59375 114.320312 L 176.882812 115.867188 L 177.089844 117.3125 L 177.234375 118.679688 L 177.332031 119.980469 L 177.386719 121.230469 L 177.40625 122.433594 Z M 188.992188 113.316406 "/>
<path fill-rule="nonzero" fill="rgb(66.27451%, 66.27451%, 66.27451%)" fill-opacity="1" stroke-width="0.75" stroke-linecap="round" stroke-linejoin="round" stroke="rgb(66.27451%, 66.27451%, 66.27451%)" stroke-opacity="1" stroke-miterlimit="10" d="M 345.34375 77.25 L 346.207031 76.410156 L 347.128906 75.5625 L 348.113281 74.703125 L 349.175781 73.839844 L 350.339844 72.960938 L 351.640625 72.066406 L 353.125 71.148438 L 354.902344 70.195312 L 357.25 69.171875 L 363.035156 67.722656 L 363.019531 67.582031 L 357.054688 67.578125 L 354.53125 67.152344 L 352.574219 66.65625 L 350.910156 66.125 L 349.433594 65.570312 L 348.089844 65 L 346.847656 64.417969 L 345.6875 63.824219 L 344.589844 63.222656 L 343.546875 62.613281 Z M 345.34375 77.25 "/>
<path fill-rule="nonzero" fill="rgb(66.27451%, 66.27451%, 66.27451%)" fill-opacity="1" stroke-width="0.75" stroke-linecap="round" stroke-linejoin="round" stroke="rgb(66.27451%, 66.27451%, 66.27451%)" stroke-opacity="1" stroke-miterlimit="10" d="M 355.773438 91.964844 L 356.074219 90.796875 L 356.421875 89.59375 L 356.820312 88.351562 L 357.28125 87.058594 L 357.820312 85.703125 L 358.464844 84.265625 L 359.261719 82.710938 L 360.285156 80.972656 L 361.761719 78.882812 L 365.960938 74.644531 L 365.871094 74.53125 L 360.769531 77.621094 L 358.390625 78.566406 L 356.460938 79.15625 L 354.761719 79.5625 L 353.214844 79.855469 L 351.769531 80.0625 L 350.40625 80.210938 L 349.101562 80.304688 L 347.855469 80.359375 L 346.648438 80.382812 Z M 355.773438 91.964844 "/>
<path fill-rule="nonzero" fill="rgb(66.27451%, 66.27451%, 66.27451%)" fill-opacity="1" stroke-width="0.75" stroke-linecap="round" stroke-linejoin="round" stroke="rgb(66.27451%, 66.27451%, 66.27451%)" stroke-opacity="1" stroke-miterlimit="10" d="M 380.921875 99.203125 L 380.292969 98.175781 L 379.667969 97.089844 L 379.050781 95.941406 L 378.441406 94.710938 L 377.839844 93.378906 L 377.253906 91.917969 L 376.6875 90.265625 L 376.152344 88.320312 L 375.671875 85.804688 L 375.542969 79.84375 L 375.398438 79.828125 L 374.078125 85.644531 L 373.101562 88.011719 L 372.1875 89.808594 L 371.300781 91.3125 L 370.433594 92.632812 L 369.582031 93.8125 L 368.738281 94.898438 L 367.902344 95.898438 L 367.074219 96.835938 L 366.25 97.71875 Z M 380.921875 99.203125 "/>
<path fill-rule="nonzero" fill="rgb(66.27451%, 66.27451%, 66.27451%)" fill-opacity="1" stroke-width="0.75" stroke-linecap="round" stroke-linejoin="round" stroke="rgb(66.27451%, 66.27451%, 66.27451%)" stroke-opacity="1" stroke-miterlimit="10" d="M 373.648438 99.292969 L 373.253906 98.152344 L 372.878906 96.957031 L 372.523438 95.703125 L 372.195312 94.371094 L 371.898438 92.941406 L 371.640625 91.386719 L 371.445312 89.652344 L 371.339844 87.636719 L 371.414062 85.078125 L 372.574219 79.226562 L 372.4375 79.183594 L 369.890625 84.578125 L 368.429688 86.675781 L 367.148438 88.234375 L 365.957031 89.511719 L 364.828125 90.609375 L 363.738281 91.582031 L 362.679688 92.457031 L 361.648438 93.253906 L 360.636719 93.992188 L 359.644531 94.675781 Z M 373.648438 99.292969 "/>
<path fill-rule="nonzero" fill="rgb(66.27451%, 66.27451%, 66.27451%)" fill-opacity="1" stroke-width="0.75" stroke-linecap="round" stroke-linejoin="round" stroke="rgb(66.27451%, 66.27451%, 66.27451%)" stroke-opacity="1" stroke-miterlimit="10" d="M 288.289062 407.007812 L 287.574219 407.980469 L 286.808594 408.964844 L 285.980469 409.972656 L 285.070312 411.003906 L 284.066406 412.0625 L 282.933594 413.15625 L 281.621094 414.308594 L 280.023438 415.542969 L 277.878906 416.9375 L 272.410156 419.316406 L 272.449219 419.453125 L 278.332031 418.476562 L 280.890625 418.480469 L 282.902344 418.648438 L 284.632812 418.898438 L 286.179688 419.199219 L 287.597656 419.542969 L 288.917969 419.914062 L 290.164062 420.304688 L 291.34375 420.71875 L 292.472656 421.144531 Z M 288.289062 407.007812 "/>
<path fill-rule="nonzero" fill="rgb(66.27451%, 66.27451%, 66.27451%)" fill-opacity="1" stroke-width="0.75" stroke-linecap="round" stroke-linejoin="round" stroke="rgb(66.27451%, 66.27451%, 66.27451%)" stroke-opacity="1" stroke-miterlimit="10" d="M 369.023438 375.457031 L 370.1875 375.144531 L 371.40625 374.855469 L 372.683594 374.59375 L 374.035156 374.359375 L 375.480469 374.164062 L 377.050781 374.019531 L 378.796875 373.945312 L 380.8125 373.988281 L 383.359375 374.242188 L 389.113281 375.816406 L 389.167969 375.683594 L 383.96875 372.757812 L 381.976562 371.152344 L 380.515625 369.761719 L 379.324219 368.484375 L 378.308594 367.277344 L 377.417969 366.121094 L 376.621094 365.003906 L 375.898438 363.917969 L 375.238281 362.859375 L 374.625 361.816406 Z M 369.023438 375.457031 "/>
<path fill-rule="nonzero" fill="rgb(66.27451%, 66.27451%, 66.27451%)" fill-opacity="1" stroke-width="0.75" stroke-linecap="round" stroke-linejoin="round" stroke="rgb(66.27451%, 66.27451%, 66.27451%)" stroke-opacity="1" stroke-miterlimit="10" d="M 385.441406 351.964844 L 386.421875 352.667969 L 387.414062 353.425781 L 388.429688 354.246094 L 389.46875 355.144531 L 390.535156 356.140625 L 391.640625 357.261719 L 392.804688 358.566406 L 394.054688 360.152344 L 395.46875 362.285156 L 397.898438 367.730469 L 398.035156 367.6875 L 397.003906 361.816406 L 396.984375 359.257812 L 397.132812 357.242188 L 397.367188 355.511719 L 397.65625 353.964844 L 397.984375 352.542969 L 398.34375 351.21875 L 398.722656 349.96875 L 399.125 348.785156 L 399.542969 347.652344 Z M 385.441406 351.964844 "/>
<path fill-rule="nonzero" fill="rgb(66.27451%, 66.27451%, 66.27451%)" fill-opacity="1" stroke-width="0.75" stroke-linecap="round" stroke-linejoin="round" stroke="rgb(66.27451%, 66.27451%, 66.27451%)" stroke-opacity="1" stroke-miterlimit="10" d="M 372.804688 397.390625 L 373.519531 396.417969 L 374.285156 395.429688 L 375.117188 394.421875 L 376.023438 393.390625 L 377.027344 392.335938 L 378.160156 391.238281 L 379.476562 390.085938 L 381.070312 388.855469 L 383.214844 387.457031 L 388.6875 385.078125 L 388.644531 384.941406 L 382.761719 385.921875 L 380.203125 385.914062 L 378.191406 385.75 L 376.464844 385.5 L 374.917969 385.195312 L 373.496094 384.851562 L 372.175781 384.484375 L 370.933594 384.089844 L 369.75 383.675781 L 368.625 383.25 Z M 372.804688 397.390625 "/>
<path fill-rule="nonzero" fill="rgb(66.27451%, 66.27451%, 66.27451%)" fill-opacity="1" stroke-width="0.75" stroke-linecap="round" stroke-linejoin="round" stroke="rgb(66.27451%, 66.27451%, 66.27451%)" stroke-opacity="1" stroke-miterlimit="10" d="M 118.710938 257.992188 L 119.53125 257.105469 L 120.402344 256.210938 L 121.339844 255.300781 L 122.355469 254.378906 L 123.46875 253.4375 L 124.71875 252.476562 L 126.152344 251.476562 L 127.875 250.429688 L 130.164062 249.28125 L 135.863281 247.523438 L 135.835938 247.382812 L 129.882812 247.703125 L 127.339844 247.414062 L 125.359375 247.023438 L 123.667969 246.582031 L 122.164062 246.109375 L 120.792969 245.613281 L 119.519531 245.097656 L 118.328125 244.566406 L 117.199219 244.027344 L 116.125 243.476562 Z M 118.710938 257.992188 "/>
<path fill-rule="nonzero" fill="rgb(66.27451%, 66.27451%, 66.27451%)" fill-opacity="1" stroke-width="0.75" stroke-linecap="round" stroke-linejoin="round" stroke="rgb(66.27451%, 66.27451%, 66.27451%)" stroke-opacity="1" stroke-miterlimit="10" d="M 145.097656 211.8125 L 145.742188 212.835938 L 146.378906 213.910156 L 147.011719 215.050781 L 147.636719 216.273438 L 148.253906 217.59375 L 148.859375 219.050781 L 149.449219 220.695312 L 150.011719 222.632812 L 150.523438 225.140625 L 150.734375 231.101562 L 150.878906 231.113281 L 152.121094 225.28125 L 153.066406 222.902344 L 153.957031 221.089844 L 154.820312 219.574219 L 155.671875 218.246094 L 156.507812 217.050781 L 157.339844 215.957031 L 158.160156 214.945312 L 158.976562 213.996094 L 159.789062 213.101562 Z M 145.097656 211.8125 "/>
<path fill-rule="nonzero" fill="rgb(66.27451%, 66.27451%, 66.27451%)" fill-opacity="1" stroke-width="0.75" stroke-linecap="round" stroke-linejoin="round" stroke="rgb(66.27451%, 66.27451%, 66.27451%)" stroke-opacity="1" stroke-miterlimit="10" d="M 181.847656 254.015625 L 180.65625 254.203125 L 179.414062 254.363281 L 178.117188 254.492188 L 176.746094 254.585938 L 175.289062 254.628906 L 173.710938 254.609375 L 171.96875 254.5 L 169.96875 254.25 L 167.460938 253.726562 L 161.90625 251.5625 L 161.835938 251.6875 L 166.699219 255.140625 L 168.511719 256.945312 L 169.824219 258.480469 L 170.875 259.875 L 171.757812 261.183594 L 172.523438 262.425781 L 173.199219 263.617188 L 173.804688 264.773438 L 174.351562 265.898438 L 174.851562 266.996094 Z M 181.847656 254.015625 "/>
<path fill-rule="nonzero" fill="rgb(66.27451%, 66.27451%, 66.27451%)" fill-opacity="1" stroke-width="0.75" stroke-linecap="round" stroke-linejoin="round" stroke="rgb(66.27451%, 66.27451%, 66.27451%)" stroke-opacity="1" stroke-miterlimit="10" d="M 180.4375 258.050781 L 179.230469 258.085938 L 177.980469 258.085938 L 176.675781 258.050781 L 175.308594 257.964844 L 173.855469 257.824219 L 172.292969 257.601562 L 170.578125 257.269531 L 168.625 256.769531 L 166.207031 255.933594 L 160.96875 253.078125 L 160.886719 253.195312 L 165.273438 257.238281 L 166.839844 259.257812 L 167.941406 260.949219 L 168.808594 262.464844 L 169.515625 263.875 L 170.117188 265.203125 L 170.636719 266.472656 L 171.089844 267.695312 L 171.492188 268.882812 L 171.847656 270.035156 Z M 180.4375 258.050781 "/>
<path fill-rule="nonzero" fill="rgb(66.27451%, 66.27451%, 66.27451%)" fill-opacity="1" stroke-width="0.75" stroke-linecap="round" stroke-linejoin="round" stroke="rgb(66.27451%, 66.27451%, 66.27451%)" stroke-opacity="1" stroke-miterlimit="10" d="M 182.109375 236.988281 L 181.160156 237.738281 L 180.160156 238.488281 L 179.09375 239.238281 L 177.945312 239.992188 L 176.699219 240.746094 L 175.316406 241.503906 L 173.746094 242.265625 L 171.878906 243.03125 L 169.441406 243.8125 L 163.535156 244.65625 L 163.539062 244.800781 L 169.472656 245.414062 L 171.9375 246.097656 L 173.832031 246.789062 L 175.433594 247.488281 L 176.847656 248.1875 L 178.125 248.894531 L 179.300781 249.601562 L 180.394531 250.308594 L 181.425781 251.019531 L 182.398438 251.730469 Z M 182.109375 236.988281 "/>
<path fill-rule="nonzero" fill="rgb(66.27451%, 66.27451%, 66.27451%)" fill-opacity="1" stroke-width="0.75" stroke-linecap="round" stroke-linejoin="round" stroke="rgb(66.27451%, 66.27451%, 66.27451%)" stroke-opacity="1" stroke-miterlimit="10" d="M 171.269531 219.476562 L 170.9375 220.636719 L 170.566406 221.828125 L 170.140625 223.0625 L 169.652344 224.34375 L 169.078125 225.6875 L 168.402344 227.113281 L 167.574219 228.648438 L 166.507812 230.363281 L 164.988281 232.421875 L 160.695312 236.5625 L 160.78125 236.675781 L 165.953125 233.703125 L 168.351562 232.8125 L 170.292969 232.265625 L 172 231.894531 L 173.554688 231.636719 L 175.003906 231.460938 L 176.371094 231.347656 L 177.671875 231.28125 L 178.925781 231.253906 L 180.132812 231.257812 Z M 171.269531 219.476562 "/>
<path fill-rule="nonzero" fill="rgb(66.27451%, 66.27451%, 66.27451%)" fill-opacity="1" stroke-width="0.75" stroke-linecap="round" stroke-linejoin="round" stroke="rgb(66.27451%, 66.27451%, 66.27451%)" stroke-opacity="1" stroke-miterlimit="10" d="M 172.960938 268.996094 L 171.835938 268.558594 L 170.683594 268.074219 L 169.496094 267.535156 L 168.265625 266.925781 L 166.984375 266.234375 L 165.628906 265.421875 L 164.179688 264.453125 L 162.570312 263.230469 L 160.667969 261.523438 L 156.949219 256.859375 L 156.824219 256.9375 L 159.300781 262.363281 L 159.960938 264.835938 L 160.320312 266.820312 L 160.53125 268.554688 L 160.636719 270.128906 L 160.675781 271.585938 L 160.664062 272.957031 L 160.605469 274.261719 L 160.515625 275.507812 L 160.394531 276.710938 Z M 172.960938 268.996094 "/>
<path fill-rule="nonzero" fill="rgb(66.27451%, 66.27451%, 66.27451%)" fill-opacity="1" stroke-width="0.75" stroke-linecap="round" stroke-linejoin="round" stroke="rgb(66.27451%, 66.27451%, 66.27451%)" stroke-opacity="1" stroke-miterlimit="10" d="M 236.992188 348.832031 L 237.167969 347.636719 L 237.386719 346.40625 L 237.648438 345.128906 L 237.972656 343.792969 L 238.363281 342.386719 L 238.855469 340.890625 L 239.480469 339.257812 L 240.316406 337.421875 L 241.558594 335.1875 L 245.285156 330.53125 L 245.1875 330.425781 L 240.441406 334.039062 L 238.175781 335.230469 L 236.320312 336.023438 L 234.675781 336.609375 L 233.164062 337.0625 L 231.75 337.421875 L 230.410156 337.710938 L 229.125 337.945312 L 227.886719 338.132812 L 226.691406 338.28125 Z M 236.992188 348.832031 "/>
<path fill-rule="nonzero" fill="rgb(66.27451%, 66.27451%, 66.27451%)" fill-opacity="1" stroke-width="0.75" stroke-linecap="round" stroke-linejoin="round" stroke="rgb(66.27451%, 66.27451%, 66.27451%)" stroke-opacity="1" stroke-miterlimit="10" d="M 262.644531 288.070312 L 262.890625 289.25 L 263.113281 290.480469 L 263.304688 291.773438 L 263.460938 293.132812 L 263.578125 294.589844 L 263.632812 296.164062 L 263.609375 297.910156 L 263.457031 299.921875 L 263.058594 302.449219 L 261.167969 308.109375 L 261.296875 308.167969 L 264.507812 303.140625 L 266.222656 301.242188 L 267.691406 299.859375 L 269.035156 298.742188 L 270.296875 297.796875 L 271.5 296.972656 L 272.65625 296.238281 L 273.78125 295.578125 L 274.878906 294.976562 L 275.953125 294.421875 Z M 262.644531 288.070312 "/>
<path fill-rule="nonzero" fill="rgb(66.27451%, 66.27451%, 66.27451%)" fill-opacity="1" stroke-width="0.75" stroke-linecap="round" stroke-linejoin="round" stroke="rgb(66.27451%, 66.27451%, 66.27451%)" stroke-opacity="1" stroke-miterlimit="10" d="M 288.242188 326.328125 L 287.078125 326.636719 L 285.859375 326.925781 L 284.582031 327.191406 L 283.230469 327.425781 L 281.785156 327.621094 L 280.214844 327.765625 L 278.46875 327.835938 L 276.453125 327.796875 L 273.90625 327.539062 L 268.152344 325.964844 L 268.097656 326.097656 L 273.296875 329.023438 L 275.289062 330.632812 L 276.75 332.023438 L 277.941406 333.300781 L 278.957031 334.507812 L 279.847656 335.660156 L 280.644531 336.777344 L 281.367188 337.863281 L 282.027344 338.925781 L 282.640625 339.964844 Z M 288.242188 326.328125 "/>
<path fill-rule="nonzero" fill="rgb(66.27451%, 66.27451%, 66.27451%)" fill-opacity="1" stroke-width="0.75" stroke-linecap="round" stroke-linejoin="round" stroke="rgb(66.27451%, 66.27451%, 66.27451%)" stroke-opacity="1" stroke-miterlimit="10" d="M 224.371094 307.6875 L 225.574219 307.652344 L 226.828125 307.652344 L 228.128906 307.6875 L 229.5 307.769531 L 230.953125 307.914062 L 232.511719 308.132812 L 234.226562 308.464844 L 236.183594 308.96875 L 238.601562 309.804688 L 243.835938 312.660156 L 243.921875 312.542969 L 239.535156 308.5 L 237.96875 306.476562 L 236.863281 304.789062 L 236 303.269531 L 235.289062 301.863281 L 234.6875 300.535156 L 234.167969 299.261719 L 233.714844 298.039062 L 233.316406 296.855469 L 232.960938 295.703125 Z M 224.371094 307.6875 "/>
<path fill-rule="nonzero" fill="rgb(66.27451%, 66.27451%, 66.27451%)" fill-opacity="1" stroke-width="0.75" stroke-linecap="round" stroke-linejoin="round" stroke="rgb(66.27451%, 66.27451%, 66.27451%)" stroke-opacity="1" stroke-miterlimit="10" d="M 250.464844 390.964844 L 251.226562 391.898438 L 251.996094 392.886719 L 252.765625 393.941406 L 253.539062 395.074219 L 254.316406 396.308594 L 255.097656 397.679688 L 255.886719 399.234375 L 256.683594 401.089844 L 257.507812 403.511719 L 258.457031 409.402344 L 258.601562 409.394531 L 259.109375 403.453125 L 259.746094 400.976562 L 260.40625 399.066406 L 261.078125 397.457031 L 261.753906 396.03125 L 262.4375 394.742188 L 263.125 393.554688 L 263.8125 392.445312 L 264.503906 391.402344 L 265.199219 390.417969 Z M 250.464844 390.964844 "/>
<path fill-rule="nonzero" fill="rgb(66.27451%, 66.27451%, 66.27451%)" fill-opacity="1" stroke-width="0.75" stroke-linecap="round" stroke-linejoin="round" stroke="rgb(66.27451%, 66.27451%, 66.27451%)" stroke-opacity="1" stroke-miterlimit="10" d="M 242.898438 289.585938 L 243.765625 290.421875 L 244.644531 291.3125 L 245.535156 292.269531 L 246.433594 293.304688 L 247.351562 294.4375 L 248.285156 295.707031 L 249.253906 297.160156 L 250.265625 298.90625 L 251.363281 301.21875 L 252.996094 306.953125 L 253.140625 306.933594 L 252.949219 300.972656 L 253.292969 298.4375 L 253.722656 296.464844 L 254.199219 294.785156 L 254.707031 293.289062 L 255.230469 291.929688 L 255.773438 290.667969 L 256.328125 289.488281 L 256.894531 288.371094 L 257.46875 287.3125 Z M 242.898438 289.585938 "/>
<path fill-rule="nonzero" fill="rgb(66.27451%, 66.27451%, 66.27451%)" fill-opacity="1" stroke-width="0.75" stroke-linecap="round" stroke-linejoin="round" stroke="rgb(66.27451%, 66.27451%, 66.27451%)" stroke-opacity="1" stroke-miterlimit="10" d="M 263.804688 353.105469 L 263.039062 352.171875 L 262.273438 351.183594 L 261.503906 350.132812 L 260.730469 349 L 259.953125 347.761719 L 259.171875 346.394531 L 258.382812 344.835938 L 257.582031 342.984375 L 256.761719 340.558594 L 255.8125 334.671875 L 255.667969 334.675781 L 255.160156 340.621094 L 254.519531 343.097656 L 253.863281 345.003906 L 253.191406 346.617188 L 252.515625 348.039062 L 251.832031 349.332031 L 251.144531 350.519531 L 250.457031 351.625 L 249.765625 352.667969 L 249.070312 353.65625 Z M 263.804688 353.105469 "/>
<path fill-rule="nonzero" fill="rgb(66.27451%, 66.27451%, 66.27451%)" fill-opacity="1" stroke-width="0.75" stroke-linecap="round" stroke-linejoin="round" stroke="rgb(66.27451%, 66.27451%, 66.27451%)" stroke-opacity="1" stroke-miterlimit="10" d="M 339.511719 267.96875 L 339.753906 266.785156 L 340.03125 265.566406 L 340.363281 264.304688 L 340.753906 262.988281 L 341.21875 261.605469 L 341.785156 260.136719 L 342.492188 258.539062 L 343.425781 256.75 L 344.78125 254.582031 L 348.746094 250.121094 L 348.648438 250.015625 L 343.722656 253.375 L 341.398438 254.449219 L 339.503906 255.140625 L 337.832031 255.640625 L 336.300781 256.015625 L 334.871094 256.304688 L 333.515625 256.523438 L 332.222656 256.6875 L 330.976562 256.8125 L 329.773438 256.898438 Z M 339.511719 267.96875 "/>
<path fill-rule="nonzero" fill="rgb(66.27451%, 66.27451%, 66.27451%)" fill-opacity="1" stroke-width="0.75" stroke-linecap="round" stroke-linejoin="round" stroke="rgb(66.27451%, 66.27451%, 66.27451%)" stroke-opacity="1" stroke-miterlimit="10" d="M 327.164062 250.722656 L 328.066406 249.917969 L 329.023438 249.113281 L 330.046875 248.300781 L 331.148438 247.484375 L 332.351562 246.660156 L 333.6875 245.824219 L 335.210938 244.972656 L 337.03125 244.097656 L 339.421875 243.183594 L 345.265625 242 L 345.253906 241.855469 L 339.296875 241.582031 L 336.796875 241.042969 L 334.863281 240.460938 L 333.226562 239.855469 L 331.777344 239.234375 L 330.460938 238.605469 L 329.246094 237.96875 L 328.109375 237.324219 L 327.042969 236.671875 L 326.027344 236.019531 Z M 327.164062 250.722656 "/>
<path fill-rule="nonzero" fill="rgb(66.27451%, 66.27451%, 66.27451%)" fill-opacity="1" stroke-width="0.75" stroke-linecap="round" stroke-linejoin="round" stroke="rgb(66.27451%, 66.27451%, 66.27451%)" stroke-opacity="1" stroke-miterlimit="10" d="M 355.128906 207.601562 L 355.757812 208.628906 L 356.382812 209.714844 L 357 210.863281 L 357.609375 212.09375 L 358.207031 213.421875 L 358.792969 214.886719 L 359.359375 216.539062 L 359.898438 218.484375 L 360.375 220.996094 L 360.507812 226.960938 L 360.648438 226.976562 L 361.972656 221.160156 L 362.945312 218.792969 L 363.863281 216.996094 L 364.746094 215.488281 L 365.613281 214.171875 L 366.46875 212.988281 L 367.3125 211.90625 L 368.148438 210.90625 L 368.976562 209.96875 L 369.796875 209.085938 Z M 355.128906 207.601562 "/>
<path fill-rule="nonzero" fill="rgb(66.27451%, 66.27451%, 66.27451%)" fill-opacity="1" stroke-width="0.75" stroke-linecap="round" stroke-linejoin="round" stroke="rgb(66.27451%, 66.27451%, 66.27451%)" stroke-opacity="1" stroke-miterlimit="10" d="M 375.777344 269.941406 L 374.800781 269.234375 L 373.804688 268.476562 L 372.789062 267.65625 L 371.75 266.757812 L 370.683594 265.765625 L 369.578125 264.640625 L 368.414062 263.335938 L 367.167969 261.75 L 365.75 259.621094 L 363.324219 254.171875 L 363.183594 254.214844 L 364.21875 260.089844 L 364.238281 262.648438 L 364.089844 264.660156 L 363.855469 266.390625 L 363.566406 267.941406 L 363.234375 269.363281 L 362.878906 270.6875 L 362.496094 271.933594 L 362.09375 273.121094 L 361.675781 274.25 Z M 375.777344 269.941406 "/>
<path fill-rule="nonzero" fill="rgb(66.27451%, 66.27451%, 66.27451%)" fill-opacity="1" stroke-width="0.75" stroke-linecap="round" stroke-linejoin="round" stroke="rgb(66.27451%, 66.27451%, 66.27451%)" stroke-opacity="1" stroke-miterlimit="10" d="M 326.652344 248.871094 L 327.597656 248.121094 L 328.597656 247.371094 L 329.664062 246.617188 L 330.8125 245.867188 L 332.0625 245.109375 L 333.445312 244.351562 L 335.015625 243.59375 L 336.882812 242.824219 L 339.320312 242.046875 L 345.222656 241.199219 L 345.222656 241.054688 L 339.289062 240.441406 L 336.820312 239.761719 L 334.925781 239.070312 L 333.324219 238.371094 L 331.914062 237.667969 L 330.636719 236.964844 L 329.460938 236.257812 L 328.363281 235.546875 L 327.335938 234.835938 L 326.359375 234.125 Z M 326.652344 248.871094 "/>
<path fill-rule="nonzero" fill="rgb(66.27451%, 66.27451%, 66.27451%)" fill-opacity="1" stroke-width="0.75" stroke-linecap="round" stroke-linejoin="round" stroke="rgb(66.27451%, 66.27451%, 66.27451%)" stroke-opacity="1" stroke-miterlimit="10" d="M 337.757812 266.605469 L 338.074219 265.441406 L 338.433594 264.242188 L 338.847656 263.003906 L 339.324219 261.71875 L 339.878906 260.371094 L 340.542969 258.9375 L 341.355469 257.394531 L 342.402344 255.667969 L 343.902344 253.59375 L 348.152344 249.410156 L 348.066406 249.296875 L 342.925781 252.324219 L 340.535156 253.238281 L 338.601562 253.804688 L 336.898438 254.195312 L 335.34375 254.464844 L 333.898438 254.65625 L 332.53125 254.785156 L 331.230469 254.867188 L 329.980469 254.90625 L 328.773438 254.914062 Z M 337.757812 266.605469 "/>
<path fill-rule="nonzero" fill="rgb(66.27451%, 66.27451%, 66.27451%)" fill-opacity="1" stroke-width="0.75" stroke-linecap="round" stroke-linejoin="round" stroke="rgb(66.27451%, 66.27451%, 66.27451%)" stroke-opacity="1" stroke-miterlimit="10" d="M 326.464844 233.636719 L 327.644531 233.382812 L 328.875 233.152344 L 330.164062 232.953125 L 331.523438 232.785156 L 332.980469 232.664062 L 334.554688 232.59375 L 336.300781 232.609375 L 338.3125 232.746094 L 340.84375 233.128906 L 346.511719 234.984375 L 346.574219 234.855469 L 341.523438 231.675781 L 339.617188 229.972656 L 338.222656 228.511719 L 337.097656 227.179688 L 336.144531 225.921875 L 335.308594 224.726562 L 334.570312 223.570312 L 333.898438 222.449219 L 333.292969 221.359375 L 332.730469 220.289062 Z M 326.464844 233.636719 "/>
<path fill-rule="nonzero" fill="rgb(66.27451%, 66.27451%, 66.27451%)" fill-opacity="1" stroke-width="0.75" stroke-linecap="round" stroke-linejoin="round" stroke="rgb(66.27451%, 66.27451%, 66.27451%)" stroke-opacity="1" stroke-miterlimit="10" d="M 206.195312 201.1875 L 206.800781 200.144531 L 207.460938 199.082031 L 208.179688 197.992188 L 208.972656 196.875 L 209.859375 195.714844 L 210.871094 194.503906 L 212.054688 193.222656 L 213.515625 191.828125 L 215.5 190.214844 L 220.6875 187.269531 L 220.632812 187.136719 L 214.886719 188.730469 L 212.339844 188.996094 L 210.324219 189.042969 L 208.578125 188.976562 L 207.007812 188.839844 L 205.5625 188.648438 L 204.207031 188.417969 L 202.929688 188.160156 L 201.710938 187.875 L 200.542969 187.566406 Z M 206.195312 201.1875 "/>
<path fill-rule="nonzero" fill="rgb(66.27451%, 66.27451%, 66.27451%)" fill-opacity="1" stroke-width="0.75" stroke-linecap="round" stroke-linejoin="round" stroke="rgb(66.27451%, 66.27451%, 66.27451%)" stroke-opacity="1" stroke-miterlimit="10" d="M 207.550781 160.742188 L 208.71875 161.042969 L 209.917969 161.390625 L 211.160156 161.789062 L 212.453125 162.25 L 213.808594 162.792969 L 215.246094 163.4375 L 216.800781 164.234375 L 218.539062 165.261719 L 220.628906 166.738281 L 224.863281 170.9375 L 224.976562 170.847656 L 221.890625 165.746094 L 220.945312 163.367188 L 220.355469 161.4375 L 219.949219 159.738281 L 219.660156 158.1875 L 219.453125 156.742188 L 219.308594 155.378906 L 219.210938 154.078125 L 219.15625 152.828125 L 219.136719 151.621094 Z M 207.550781 160.742188 "/>
<path fill-rule="nonzero" fill="rgb(66.27451%, 66.27451%, 66.27451%)" fill-opacity="1" stroke-width="0.75" stroke-linecap="round" stroke-linejoin="round" stroke="rgb(66.27451%, 66.27451%, 66.27451%)" stroke-opacity="1" stroke-miterlimit="10" d="M 260.28125 202.042969 L 259.101562 201.78125 L 257.886719 201.476562 L 256.632812 201.121094 L 255.324219 200.707031 L 253.953125 200.214844 L 252.492188 199.617188 L 250.910156 198.878906 L 249.136719 197.914062 L 246.996094 196.511719 L 242.617188 192.464844 L 242.503906 192.558594 L 245.773438 197.550781 L 246.796875 199.894531 L 247.457031 201.800781 L 247.921875 203.484375 L 248.265625 205.023438 L 248.527344 206.457031 L 248.71875 207.816406 L 248.859375 209.113281 L 248.957031 210.359375 L 249.023438 211.566406 Z M 260.28125 202.042969 "/>
<path fill-rule="nonzero" fill="rgb(66.27451%, 66.27451%, 66.27451%)" fill-opacity="1" stroke-width="0.75" stroke-linecap="round" stroke-linejoin="round" stroke="rgb(66.27451%, 66.27451%, 66.27451%)" stroke-opacity="1" stroke-miterlimit="10" d="M 266.257812 189.074219 L 265.078125 189.324219 L 263.847656 189.554688 L 262.558594 189.753906 L 261.199219 189.921875 L 259.742188 190.046875 L 258.167969 190.113281 L 256.421875 190.101562 L 254.410156 189.960938 L 251.878906 189.578125 L 246.210938 187.722656 L 246.148438 187.855469 L 251.195312 191.03125 L 253.105469 192.734375 L 254.5 194.195312 L 255.625 195.53125 L 256.578125 196.785156 L 257.414062 197.984375 L 258.152344 199.136719 L 258.820312 200.257812 L 259.429688 201.351562 L 259.992188 202.417969 Z M 266.257812 189.074219 "/>
<path fill-rule="nonzero" fill="rgb(66.27451%, 66.27451%, 66.27451%)" fill-opacity="1" stroke-width="0.75" stroke-linecap="round" stroke-linejoin="round" stroke="rgb(66.27451%, 66.27451%, 66.27451%)" stroke-opacity="1" stroke-miterlimit="10" d="M 248.285156 391.625 L 249.113281 392.5 L 249.945312 393.433594 L 250.785156 394.433594 L 251.632812 395.511719 L 252.492188 396.691406 L 253.363281 398.003906 L 254.257812 399.507812 L 255.179688 401.300781 L 256.164062 403.664062 L 257.511719 409.472656 L 257.65625 409.457031 L 257.757812 403.496094 L 258.226562 400.980469 L 258.757812 399.03125 L 259.316406 397.378906 L 259.894531 395.910156 L 260.488281 394.578125 L 261.09375 393.34375 L 261.707031 392.195312 L 262.324219 391.105469 L 262.949219 390.074219 Z M 248.285156 391.625 "/>
<path fill-rule="nonzero" fill="rgb(90.196078%, 62.352941%, 0%)" fill-opacity="1" stroke-width="0.75" stroke-linecap="round" stroke-linejoin="round" stroke="rgb(0%, 0%, 0%)" stroke-opacity="1" stroke-miterlimit="10" d="M 149.011719 438.046875 C 149.011719 445.753906 142.761719 452 135.058594 452 C 127.351562 452 121.101562 445.753906 121.101562 438.046875 C 121.101562 430.339844 127.351562 424.09375 135.058594 424.09375 C 142.761719 424.09375 149.011719 430.339844 149.011719 438.046875 "/>
<path fill-rule="nonzero" fill="rgb(90.196078%, 62.352941%, 0%)" fill-opacity="1" stroke-width="0.75" stroke-linecap="round" stroke-linejoin="round" stroke="rgb(0%, 0%, 0%)" stroke-opacity="1" stroke-miterlimit="10" d="M 43.90625 266.3125 C 43.90625 274.019531 37.660156 280.265625 29.953125 280.265625 C 22.246094 280.265625 16 274.019531 16 266.3125 C 16 258.605469 22.246094 252.359375 29.953125 252.359375 C 37.660156 252.359375 43.90625 258.605469 43.90625 266.3125 "/>
<path fill-rule="nonzero" fill="rgb(90.196078%, 62.352941%, 0%)" fill-opacity="1" stroke-width="0.75" stroke-linecap="round" stroke-linejoin="round" stroke="rgb(0%, 0%, 0%)" stroke-opacity="1" stroke-miterlimit="10" d="M 176.945312 92.199219 C 176.945312 99.90625 170.699219 106.152344 162.992188 106.152344 C 155.289062 106.152344 149.039062 99.90625 149.039062 92.199219 C 149.039062 84.492188 155.289062 78.246094 162.992188 78.246094 C 170.699219 78.246094 176.945312 84.492188 176.945312 92.199219 "/>
<path fill-rule="nonzero" fill="rgb(90.196078%, 62.352941%, 0%)" fill-opacity="1" stroke-width="0.75" stroke-linecap="round" stroke-linejoin="round" stroke="rgb(0%, 0%, 0%)" stroke-opacity="1" stroke-miterlimit="10" d="M 390.828125 65.953125 C 390.828125 73.660156 384.582031 79.90625 376.875 79.90625 C 369.167969 79.90625 362.921875 73.660156 362.921875 65.953125 C 362.921875 58.246094 369.167969 52 376.875 52 C 384.582031 52 390.828125 58.246094 390.828125 65.953125 "/>
<path fill-rule="nonzero" fill="rgb(90.196078%, 62.352941%, 0%)" fill-opacity="1" stroke-width="0.75" stroke-linecap="round" stroke-linejoin="round" stroke="rgb(0%, 0%, 0%)" stroke-opacity="1" stroke-miterlimit="10" d="M 416 381.054688 C 416 388.761719 409.753906 395.007812 402.046875 395.007812 C 394.339844 395.007812 388.09375 388.761719 388.09375 381.054688 C 388.09375 373.347656 394.339844 367.101562 402.046875 367.101562 C 409.753906 367.101562 416 373.347656 416 381.054688 "/>
<path fill-rule="nonzero" fill="rgb(90.196078%, 62.352941%, 0%)" fill-opacity="1" stroke-width="0.75" stroke-linecap="round" stroke-linejoin="round" stroke="rgb(0%, 0%, 0%)" stroke-opacity="1" stroke-miterlimit="10" d="M 163.539062 245.007812 C 163.539062 252.710938 157.292969 258.960938 149.585938 258.960938 C 141.878906 258.960938 135.632812 252.710938 135.632812 245.007812 C 135.632812 237.300781 141.878906 231.054688 149.585938 231.054688 C 157.292969 231.054688 163.539062 237.300781 163.539062 245.007812 "/>
<path fill-rule="nonzero" fill="rgb(90.196078%, 62.352941%, 0%)" fill-opacity="1" stroke-width="0.75" stroke-linecap="round" stroke-linejoin="round" stroke="rgb(0%, 0%, 0%)" stroke-opacity="1" stroke-miterlimit="10" d="M 269.171875 320.730469 C 269.171875 328.4375 262.925781 334.683594 255.21875 334.683594 C 247.515625 334.683594 241.265625 328.4375 241.265625 320.730469 C 241.265625 313.023438 247.515625 306.777344 255.21875 306.777344 C 262.925781 306.777344 269.171875 313.023438 269.171875 320.730469 "/>
<path fill-rule="nonzero" fill="rgb(90.196078%, 62.352941%, 0%)" fill-opacity="1" stroke-width="0.75" stroke-linecap="round" stroke-linejoin="round" stroke="rgb(0%, 0%, 0%)" stroke-opacity="1" stroke-miterlimit="10" d="M 373.125 240.851562 C 373.125 248.558594 366.878906 254.804688 359.171875 254.804688 C 351.464844 254.804688 345.21875 248.558594 345.21875 240.851562 C 345.21875 233.144531 351.464844 226.898438 359.171875 226.898438 C 366.878906 226.898438 373.125 233.144531 373.125 240.851562 "/>
<path fill-rule="nonzero" fill="rgb(90.196078%, 62.352941%, 0%)" fill-opacity="1" stroke-width="0.75" stroke-linecap="round" stroke-linejoin="round" stroke="rgb(0%, 0%, 0%)" stroke-opacity="1" stroke-miterlimit="10" d="M 247.503906 181.859375 C 247.503906 189.5625 241.253906 195.8125 233.550781 195.8125 C 225.84375 195.8125 219.597656 189.5625 219.597656 181.859375 C 219.597656 174.152344 225.84375 167.90625 233.550781 167.90625 C 241.253906 167.90625 247.503906 174.152344 247.503906 181.859375 "/>
<path fill-rule="nonzero" fill="rgb(90.196078%, 62.352941%, 0%)" fill-opacity="1" stroke-width="0.75" stroke-linecap="round" stroke-linejoin="round" stroke="rgb(0%, 0%, 0%)" stroke-opacity="1" stroke-miterlimit="10" d="M 273.003906 423.34375 C 273.003906 431.046875 266.753906 437.296875 259.050781 437.296875 C 251.34375 437.296875 245.09375 431.046875 245.09375 423.34375 C 245.09375 415.636719 251.34375 409.386719 259.050781 409.386719 C 266.753906 409.386719 273.003906 415.636719 273.003906 423.34375 "/>
</svg>
