<?xml version="1.0" encoding="UTF-8"?>
<svg xmlns="http://www.w3.org/2000/svg" xmlns:xlink="http://www.w3.org/1999/xlink" width="432" height="504" viewBox="0 0 432 504">
<rect x="-43.2" y="-50.4" width="518.4" height="604.8" fill="rgb(100%, 100%, 100%)" fill-opacity="1"/>
<path fill="none" stroke-width="0.75" stroke-linecap="round" stroke-linejoin="round" stroke="rgb(66.27451%, 66.27451%, 66.27451%)" stroke-opacity="1" stroke-miterlimit="10" d="M 188.710938 223.75 L 326.589844 207.363281 "/>
<path fill="none" stroke-width="0.75" stroke-linecap="round" stroke-linejoin="round" stroke="rgb(66.27451%, 66.27451%, 66.27451%)" stroke-opacity="1" stroke-miterlimit="10" d="M 273.222656 84.582031 L 333.675781 193.515625 "/>
<path fill="none" stroke-width="0.75" stroke-linecap="round" stroke-linejoin="round" stroke="rgb(66.27451%, 66.27451%, 66.27451%)" stroke-opacity="1" stroke-miterlimit="10" d="M 227.679688 326.882812 L 330.941406 215.929688 "/>
<path fill="none" stroke-width="0.75" stroke-linecap="round" stroke-linejoin="round" stroke="rgb(66.27451%, 66.27451%, 66.27451%)" stroke-opacity="1" stroke-miterlimit="10" d="M 235.84375 206.0625 L 42.914062 282.929688 "/>
<path fill="none" stroke-width="0.75" stroke-linecap="round" stroke-linejoin="round" stroke="rgb(66.27451%, 66.27451%, 66.27451%)" stroke-opacity="1" stroke-miterlimit="10" d="M 43.136719 402.480469 L 31.550781 301.957031 "/>
<path fill="none" stroke-width="0.75" stroke-linecap="round" stroke-linejoin="round" stroke="rgb(66.27451%, 66.27451%, 66.27451%)" stroke-opacity="1" stroke-miterlimit="10" d="M 158.492188 231.953125 L 42.742188 282.511719 "/>
<path fill="none" stroke-width="0.75" stroke-linecap="round" stroke-linejoin="round" stroke="rgb(66.27451%, 66.27451%, 66.27451%)" stroke-opacity="1" stroke-miterlimit="10" d="M 390.203125 76.449219 L 260.988281 190.953125 "/>
<path fill="none" stroke-width="0.75" stroke-linecap="round" stroke-linejoin="round" stroke="rgb(66.27451%, 66.27451%, 66.27451%)" stroke-opacity="1" stroke-miterlimit="10" d="M 188.035156 220.691406 L 237.285156 204.550781 "/>
<path fill="none" stroke-width="0.75" stroke-linecap="round" stroke-linejoin="round" stroke="rgb(66.27451%, 66.27451%, 66.27451%)" stroke-opacity="1" stroke-miterlimit="10" d="M 220.640625 323.09375 L 247.246094 213.765625 "/>
<path fill="none" stroke-width="0.75" stroke-linecap="round" stroke-linejoin="round" stroke="rgb(66.27451%, 66.27451%, 66.27451%)" stroke-opacity="1" stroke-miterlimit="10" d="M 60.605469 420.5 L 166.429688 436.019531 "/>
<path fill="none" stroke-width="0.75" stroke-linecap="round" stroke-linejoin="round" stroke="rgb(66.27451%, 66.27451%, 66.27451%)" stroke-opacity="1" stroke-miterlimit="10" d="M 354.207031 363.007812 L 193.046875 432.519531 "/>
<path fill="none" stroke-width="0.75" stroke-linecap="round" stroke-linejoin="round" stroke="rgb(66.27451%, 66.27451%, 66.27451%)" stroke-opacity="1" stroke-miterlimit="10" d="M 31.765625 303.816406 L 43.347656 404.339844 "/>
<path fill="none" stroke-width="0.75" stroke-linecap="round" stroke-linejoin="round" stroke="rgb(66.27451%, 66.27451%, 66.27451%)" stroke-opacity="1" stroke-miterlimit="10" d="M 164.574219 435.75 L 58.753906 420.226562 "/>
<path fill="none" stroke-width="0.75" stroke-linecap="round" stroke-linejoin="round" stroke="rgb(66.27451%, 66.27451%, 66.27451%)" stroke-opacity="1" stroke-miterlimit="10" d="M 202.542969 345.125 L 57.605469 412.332031 "/>
<path fill="none" stroke-width="0.75" stroke-linecap="round" stroke-linejoin="round" stroke="rgb(66.27451%, 66.27451%, 66.27451%)" stroke-opacity="1" stroke-miterlimit="10" d="M 343.359375 221.269531 L 366.167969 343.023438 "/>
<path fill="none" stroke-width="0.75" stroke-linecap="round" stroke-linejoin="round" stroke="rgb(66.27451%, 66.27451%, 66.27451%)" stroke-opacity="1" stroke-miterlimit="10" d="M 260.082031 212.835938 L 360.328125 345.605469 "/>
<path fill="none" stroke-width="0.75" stroke-linecap="round" stroke-linejoin="round" stroke="rgb(66.27451%, 66.27451%, 66.27451%)" stroke-opacity="1" stroke-miterlimit="10" d="M 346.828125 191.234375 L 396.417969 78.722656 "/>
<path fill="none" stroke-width="0.75" stroke-linecap="round" stroke-linejoin="round" stroke="rgb(66.27451%, 66.27451%, 66.27451%)" stroke-opacity="1" stroke-miterlimit="10" d="M 281.359375 70.191406 L 388.101562 66.441406 "/>
<path fill="none" stroke-width="0.75" stroke-linecap="round" stroke-linejoin="round" stroke="rgb(66.27451%, 66.27451%, 66.27451%)" stroke-opacity="1" stroke-miterlimit="10" d="M 324.730469 207.582031 L 186.851562 223.972656 "/>
<path fill="none" stroke-width="0.75" stroke-linecap="round" stroke-linejoin="round" stroke="rgb(66.27451%, 66.27451%, 66.27451%)" stroke-opacity="1" stroke-miterlimit="10" d="M 179.695312 422.230469 L 173.46875 239.5625 "/>
<path fill="none" stroke-width="0.75" stroke-linecap="round" stroke-linejoin="round" stroke="rgb(66.27451%, 66.27451%, 66.27451%)" stroke-opacity="1" stroke-miterlimit="10" d="M 252.367188 184.484375 L 263.9375 84.605469 "/>
<path fill="none" stroke-width="0.75" stroke-linecap="round" stroke-linejoin="round" stroke="rgb(66.27451%, 66.27451%, 66.27451%)" stroke-opacity="1" stroke-miterlimit="10" d="M 181.113281 212.03125 L 258.382812 82.722656 "/>
<path fill-rule="nonzero" fill="rgb(66.27451%, 66.27451%, 66.27451%)" fill-opacity="1" stroke-width="0.75" stroke-linecap="round" stroke-linejoin="round" stroke="rgb(66.27451%, 66.27451%, 66.27451%)" stroke-opacity="1" stroke-miterlimit="10" d="M 308.871094 216.894531 L 309.738281 216.054688 L 310.660156 215.210938 L 311.648438 214.355469 L 312.714844 213.496094 L 313.882812 212.621094 L 315.1875 211.730469 L 316.675781 210.820312 L 318.457031 209.871094 L 320.804688 208.855469 L 326.597656 207.433594 L 326.582031 207.289062 L 320.617188 207.265625 L 318.09375 206.828125 L 316.140625 206.324219 L 314.480469 205.789062 L 313.003906 205.226562 L 311.664062 204.652344 L 310.425781 204.0625 L 309.265625 203.46875 L 308.171875 202.863281 L 307.128906 202.25 Z M 308.871094 216.894531 "/>
<path fill-rule="nonzero" fill="rgb(66.27451%, 66.27451%, 66.27451%)" fill-opacity="1" stroke-width="0.75" stroke-linecap="round" stroke-linejoin="round" stroke="rgb(66.27451%, 66.27451%, 66.27451%)" stroke-opacity="1" stroke-miterlimit="10" d="M 318.144531 180.722656 L 319.25 181.210938 L 320.378906 181.742188 L 321.542969 182.335938 L 322.746094 182.996094 L 323.996094 183.746094 L 325.3125 184.613281 L 326.722656 185.648438 L 328.273438 186.9375 L 330.101562 188.726562 L 333.613281 193.550781 L 333.738281 193.480469 L 331.503906 187.949219 L 330.953125 185.449219 L 330.675781 183.453125 L 330.546875 181.710938 L 330.507812 180.132812 L 330.53125 178.675781 L 330.605469 177.304688 L 330.71875 176.003906 L 330.863281 174.761719 L 331.039062 173.570312 Z M 318.144531 180.722656 "/>
<path fill-rule="nonzero" fill="rgb(66.27451%, 66.27451%, 66.27451%)" fill-opacity="1" stroke-width="0.75" stroke-linecap="round" stroke-linejoin="round" stroke="rgb(66.27451%, 66.27451%, 66.27451%)" stroke-opacity="1" stroke-miterlimit="10" d="M 323.582031 234.65625 L 323.703125 233.457031 L 323.859375 232.214844 L 324.0625 230.925781 L 324.320312 229.578125 L 324.644531 228.15625 L 325.0625 226.636719 L 325.609375 224.976562 L 326.359375 223.101562 L 327.492188 220.808594 L 330.992188 215.980469 L 330.886719 215.878906 L 326.320312 219.714844 L 324.113281 221.015625 L 322.296875 221.894531 L 320.683594 222.558594 L 319.195312 223.082031 L 317.800781 223.511719 L 316.476562 223.863281 L 315.203125 224.160156 L 313.976562 224.40625 L 312.789062 224.609375 Z M 323.582031 234.65625 "/>
<path fill-rule="nonzero" fill="rgb(66.27451%, 66.27451%, 66.27451%)" fill-opacity="1" stroke-width="0.75" stroke-linecap="round" stroke-linejoin="round" stroke="rgb(66.27451%, 66.27451%, 66.27451%)" stroke-opacity="1" stroke-miterlimit="10" d="M 57.578125 269.152344 L 56.957031 270.1875 L 56.28125 271.242188 L 55.546875 272.320312 L 54.738281 273.425781 L 53.835938 274.574219 L 52.808594 275.769531 L 51.605469 277.035156 L 50.125 278.410156 L 48.117188 279.996094 L 42.890625 282.863281 L 42.941406 282.996094 L 48.710938 281.484375 L 51.261719 281.253906 L 53.277344 281.238281 L 55.023438 281.328125 L 56.589844 281.488281 L 58.035156 281.699219 L 59.382812 281.949219 L 60.660156 282.226562 L 61.871094 282.527344 L 63.035156 282.851562 Z M 57.578125 269.152344 "/>
<path fill-rule="nonzero" fill="rgb(66.27451%, 66.27451%, 66.27451%)" fill-opacity="1" stroke-width="0.75" stroke-linecap="round" stroke-linejoin="round" stroke="rgb(66.27451%, 66.27451%, 66.27451%)" stroke-opacity="1" stroke-miterlimit="10" d="M 41.019531 319.710938 L 40.183594 318.839844 L 39.339844 317.914062 L 38.492188 316.921875 L 37.632812 315.851562 L 36.765625 314.679688 L 35.878906 313.375 L 34.972656 311.882812 L 34.03125 310.097656 L 33.027344 307.746094 L 31.621094 301.949219 L 31.480469 301.964844 L 31.433594 307.929688 L 30.988281 310.449219 L 30.476562 312.402344 L 29.933594 314.0625 L 29.367188 315.535156 L 28.789062 316.871094 L 28.195312 318.109375 L 27.59375 319.269531 L 26.984375 320.359375 L 26.371094 321.398438 Z M 41.019531 319.710938 "/>
<path fill-rule="nonzero" fill="rgb(66.27451%, 66.27451%, 66.27451%)" fill-opacity="1" stroke-width="0.75" stroke-linecap="round" stroke-linejoin="round" stroke="rgb(66.27451%, 66.27451%, 66.27451%)" stroke-opacity="1" stroke-miterlimit="10" d="M 56.945312 268.261719 L 56.355469 269.316406 L 55.71875 270.390625 L 55.019531 271.492188 L 54.246094 272.625 L 53.382812 273.800781 L 52.390625 275.03125 L 51.230469 276.332031 L 49.800781 277.753906 L 47.84375 279.40625 L 42.710938 282.445312 L 42.769531 282.578125 L 48.488281 280.875 L 51.027344 280.5625 L 53.042969 280.480469 L 54.789062 280.515625 L 56.359375 280.625 L 57.8125 280.785156 L 59.167969 280.992188 L 60.449219 281.226562 L 61.675781 281.488281 L 62.847656 281.773438 Z M 56.945312 268.261719 "/>
<path fill-rule="nonzero" fill="rgb(66.27451%, 66.27451%, 66.27451%)" fill-opacity="1" stroke-width="0.75" stroke-linecap="round" stroke-linejoin="round" stroke="rgb(66.27451%, 66.27451%, 66.27451%)" stroke-opacity="1" stroke-miterlimit="10" d="M 270.109375 173.019531 L 269.875 174.203125 L 269.597656 175.421875 L 269.273438 176.6875 L 268.886719 178.003906 L 268.425781 179.386719 L 267.863281 180.859375 L 267.160156 182.457031 L 266.238281 184.253906 L 264.886719 186.425781 L 260.941406 190.898438 L 261.035156 191.007812 L 265.949219 187.625 L 268.269531 186.546875 L 270.164062 185.84375 L 271.832031 185.339844 L 273.363281 184.960938 L 274.792969 184.667969 L 276.148438 184.445312 L 277.441406 184.273438 L 278.683594 184.144531 L 279.886719 184.054688 Z M 270.109375 173.019531 "/>
<path fill-rule="nonzero" fill="rgb(66.27451%, 66.27451%, 66.27451%)" fill-opacity="1" stroke-width="0.75" stroke-linecap="round" stroke-linejoin="round" stroke="rgb(66.27451%, 66.27451%, 66.27451%)" stroke-opacity="1" stroke-miterlimit="10" d="M 221.792969 217.386719 L 222.476562 216.394531 L 223.214844 215.382812 L 224.015625 214.351562 L 224.890625 213.296875 L 225.867188 212.210938 L 226.964844 211.082031 L 228.246094 209.894531 L 229.804688 208.613281 L 231.910156 207.15625 L 237.308594 204.621094 L 237.261719 204.484375 L 231.410156 205.632812 L 228.851562 205.703125 L 226.835938 205.59375 L 225.101562 205.394531 L 223.546875 205.136719 L 222.121094 204.835938 L 220.789062 204.503906 L 219.53125 204.144531 L 218.339844 203.769531 L 217.199219 203.375 Z M 221.792969 217.386719 "/>
<path fill-rule="nonzero" fill="rgb(66.27451%, 66.27451%, 66.27451%)" fill-opacity="1" stroke-width="0.75" stroke-linecap="round" stroke-linejoin="round" stroke="rgb(66.27451%, 66.27451%, 66.27451%)" stroke-opacity="1" stroke-miterlimit="10" d="M 249.984375 233.695312 L 249.5 232.589844 L 249.03125 231.429688 L 248.578125 230.207031 L 248.144531 228.90625 L 247.734375 227.507812 L 247.355469 225.976562 L 247.019531 224.261719 L 246.753906 222.261719 L 246.625 219.707031 L 247.316406 213.78125 L 247.175781 213.746094 L 245.066406 219.328125 L 243.777344 221.535156 L 242.625 223.191406 L 241.539062 224.558594 L 240.5 225.746094 L 239.492188 226.800781 L 238.507812 227.757812 L 237.542969 228.636719 L 236.59375 229.449219 L 235.65625 230.210938 Z M 249.984375 233.695312 "/>
<path fill-rule="nonzero" fill="rgb(66.27451%, 66.27451%, 66.27451%)" fill-opacity="1" stroke-width="0.75" stroke-linecap="round" stroke-linejoin="round" stroke="rgb(66.27451%, 66.27451%, 66.27451%)" stroke-opacity="1" stroke-miterlimit="10" d="M 146.835938 440.597656 L 147.894531 440.015625 L 149.003906 439.441406 L 150.179688 438.875 L 151.433594 438.324219 L 152.789062 437.785156 L 154.28125 437.265625 L 155.953125 436.773438 L 157.921875 436.324219 L 160.453125 435.957031 L 166.417969 436.09375 L 166.4375 435.949219 L 160.6875 434.367188 L 158.367188 433.289062 L 156.613281 432.296875 L 155.148438 431.34375 L 153.871094 430.417969 L 152.726562 429.511719 L 151.683594 428.621094 L 150.71875 427.742188 L 149.820312 426.871094 L 148.976562 426.011719 Z M 146.835938 440.597656 "/>
<path fill-rule="nonzero" fill="rgb(66.27451%, 66.27451%, 66.27451%)" fill-opacity="1" stroke-width="0.75" stroke-linecap="round" stroke-linejoin="round" stroke="rgb(66.27451%, 66.27451%, 66.27451%)" stroke-opacity="1" stroke-miterlimit="10" d="M 207.316406 418.335938 L 206.722656 419.386719 L 206.078125 420.460938 L 205.375 421.558594 L 204.597656 422.6875 L 203.726562 423.859375 L 202.734375 425.082031 L 201.566406 426.382812 L 200.125 427.796875 L 198.164062 429.4375 L 193.019531 432.453125 L 193.074219 432.585938 L 198.800781 430.914062 L 201.339844 430.613281 L 203.355469 430.535156 L 205.101562 430.578125 L 206.675781 430.695312 L 208.125 430.867188 L 209.480469 431.074219 L 210.761719 431.316406 L 211.984375 431.585938 L 213.15625 431.875 Z M 207.316406 418.335938 "/>
<path fill-rule="nonzero" fill="rgb(66.27451%, 66.27451%, 66.27451%)" fill-opacity="1" stroke-width="0.75" stroke-linecap="round" stroke-linejoin="round" stroke="rgb(66.27451%, 66.27451%, 66.27451%)" stroke-opacity="1" stroke-miterlimit="10" d="M 33.882812 386.585938 L 34.71875 387.457031 L 35.558594 388.382812 L 36.40625 389.375 L 37.265625 390.445312 L 38.136719 391.617188 L 39.019531 392.921875 L 39.929688 394.414062 L 40.867188 396.199219 L 41.875 398.550781 L 43.277344 404.347656 L 43.421875 404.332031 L 43.46875 398.367188 L 43.914062 395.847656 L 44.421875 393.894531 L 44.964844 392.234375 L 45.53125 390.765625 L 46.113281 389.425781 L 46.703125 388.1875 L 47.304688 387.03125 L 47.914062 385.9375 L 48.53125 384.898438 Z M 33.882812 386.585938 "/>
<path fill-rule="nonzero" fill="rgb(66.27451%, 66.27451%, 66.27451%)" fill-opacity="1" stroke-width="0.75" stroke-linecap="round" stroke-linejoin="round" stroke="rgb(66.27451%, 66.27451%, 66.27451%)" stroke-opacity="1" stroke-miterlimit="10" d="M 78.34375 415.648438 L 77.289062 416.230469 L 76.175781 416.808594 L 75 417.371094 L 73.746094 417.925781 L 72.390625 418.464844 L 70.902344 418.984375 L 69.226562 419.476562 L 67.257812 419.925781 L 64.726562 420.292969 L 58.761719 420.15625 L 58.742188 420.296875 L 64.492188 421.878906 L 66.8125 422.957031 L 68.570312 423.953125 L 70.03125 424.90625 L 71.308594 425.832031 L 72.453125 426.738281 L 73.496094 427.628906 L 74.460938 428.507812 L 75.359375 429.375 L 76.203125 430.238281 Z M 78.34375 415.648438 "/>
<path fill-rule="nonzero" fill="rgb(66.27451%, 66.27451%, 66.27451%)" fill-opacity="1" stroke-width="0.75" stroke-linecap="round" stroke-linejoin="round" stroke="rgb(66.27451%, 66.27451%, 66.27451%)" stroke-opacity="1" stroke-miterlimit="10" d="M 71.488281 397.769531 L 70.921875 398.835938 L 70.308594 399.925781 L 69.632812 401.042969 L 68.886719 402.191406 L 68.046875 403.386719 L 67.085938 404.636719 L 65.957031 405.964844 L 64.554688 407.421875 L 62.636719 409.113281 L 57.574219 412.265625 L 57.636719 412.398438 L 63.3125 410.570312 L 65.84375 410.199219 L 67.859375 410.070312 L 69.605469 410.066406 L 71.179688 410.140625 L 72.632812 410.273438 L 73.996094 410.445312 L 75.28125 410.652344 L 76.511719 410.886719 L 77.691406 411.144531 Z M 71.488281 397.769531 "/>
<path fill-rule="nonzero" fill="rgb(66.27451%, 66.27451%, 66.27451%)" fill-opacity="1" stroke-width="0.75" stroke-linecap="round" stroke-linejoin="round" stroke="rgb(66.27451%, 66.27451%, 66.27451%)" stroke-opacity="1" stroke-miterlimit="10" d="M 355.476562 325.984375 L 356.371094 326.792969 L 357.273438 327.65625 L 358.191406 328.585938 L 359.121094 329.59375 L 360.074219 330.699219 L 361.046875 331.9375 L 362.058594 333.363281 L 363.121094 335.078125 L 364.289062 337.355469 L 366.097656 343.039062 L 366.238281 343.011719 L 365.867188 337.058594 L 366.132812 334.515625 L 366.503906 332.53125 L 366.929688 330.835938 L 367.390625 329.328125 L 367.875 327.953125 L 368.378906 326.675781 L 368.898438 325.480469 L 369.425781 324.347656 L 369.96875 323.269531 Z M 355.476562 325.984375 "/>
<path fill-rule="nonzero" fill="rgb(66.27451%, 66.27451%, 66.27451%)" fill-opacity="1" stroke-width="0.75" stroke-linecap="round" stroke-linejoin="round" stroke="rgb(66.27451%, 66.27451%, 66.27451%)" stroke-opacity="1" stroke-miterlimit="10" d="M 343.164062 335.109375 L 344.328125 335.433594 L 345.523438 335.804688 L 346.757812 336.226562 L 348.039062 336.714844 L 349.382812 337.285156 L 350.808594 337.957031 L 352.347656 338.785156 L 354.0625 339.847656 L 356.121094 341.363281 L 360.273438 345.648438 L 360.386719 345.5625 L 357.402344 340.398438 L 356.507812 338 L 355.957031 336.058594 L 355.582031 334.351562 L 355.324219 332.796875 L 355.144531 331.347656 L 355.027344 329.980469 L 354.957031 328.679688 L 354.929688 327.429688 L 354.933594 326.222656 Z M 343.164062 335.109375 "/>
<path fill-rule="nonzero" fill="rgb(66.27451%, 66.27451%, 66.27451%)" fill-opacity="1" stroke-width="0.75" stroke-linecap="round" stroke-linejoin="round" stroke="rgb(66.27451%, 66.27451%, 66.27451%)" stroke-opacity="1" stroke-miterlimit="10" d="M 395.613281 98.824219 L 395.335938 97.652344 L 395.078125 96.429688 L 394.84375 95.144531 L 394.644531 93.785156 L 394.484375 92.335938 L 394.382812 90.761719 L 394.351562 89.015625 L 394.445312 87 L 394.765625 84.460938 L 396.484375 78.75 L 396.351562 78.691406 L 393.296875 83.816406 L 391.640625 85.765625 L 390.214844 87.191406 L 388.90625 88.347656 L 387.675781 89.332031 L 386.496094 90.195312 L 385.359375 90.964844 L 384.253906 91.660156 L 383.175781 92.292969 L 382.121094 92.878906 Z M 395.613281 98.824219 "/>
<path fill-rule="nonzero" fill="rgb(66.27451%, 66.27451%, 66.27451%)" fill-opacity="1" stroke-width="0.75" stroke-linecap="round" stroke-linejoin="round" stroke="rgb(66.27451%, 66.27451%, 66.27451%)" stroke-opacity="1" stroke-miterlimit="10" d="M 369.652344 74.46875 L 370.585938 73.703125 L 371.574219 72.941406 L 372.628906 72.171875 L 373.765625 71.402344 L 375.003906 70.628906 L 376.375 69.847656 L 377.933594 69.0625 L 379.789062 68.269531 L 382.214844 67.453125 L 388.105469 66.515625 L 388.097656 66.371094 L 382.15625 65.847656 L 379.679688 65.207031 L 377.773438 64.542969 L 376.164062 63.867188 L 374.742188 63.1875 L 373.453125 62.503906 L 372.265625 61.8125 L 371.160156 61.121094 L 370.121094 60.425781 L 369.132812 59.730469 Z M 369.652344 74.46875 "/>
<path fill-rule="nonzero" fill="rgb(66.27451%, 66.27451%, 66.27451%)" fill-opacity="1" stroke-width="0.75" stroke-linecap="round" stroke-linejoin="round" stroke="rgb(66.27451%, 66.27451%, 66.27451%)" stroke-opacity="1" stroke-miterlimit="10" d="M 204.570312 214.441406 L 203.703125 215.277344 L 202.78125 216.125 L 201.792969 216.976562 L 200.726562 217.839844 L 199.554688 218.710938 L 198.253906 219.601562 L 196.765625 220.515625 L 194.984375 221.460938 L 192.636719 222.476562 L 186.84375 223.898438 L 186.859375 224.042969 L 192.824219 224.070312 L 195.34375 224.503906 L 197.300781 225.007812 L 198.960938 225.546875 L 200.433594 226.105469 L 201.777344 226.679688 L 203.015625 227.269531 L 204.175781 227.867188 L 205.269531 228.472656 L 206.308594 229.082031 Z M 204.570312 214.441406 "/>
<path fill-rule="nonzero" fill="rgb(66.27451%, 66.27451%, 66.27451%)" fill-opacity="1" stroke-width="0.75" stroke-linecap="round" stroke-linejoin="round" stroke="rgb(66.27451%, 66.27451%, 66.27451%)" stroke-opacity="1" stroke-miterlimit="10" d="M 181.476562 258.019531 L 180.714844 257.085938 L 179.949219 256.097656 L 179.183594 255.039062 L 178.414062 253.902344 L 177.640625 252.664062 L 176.863281 251.292969 L 176.082031 249.734375 L 175.285156 247.878906 L 174.472656 245.453125 L 173.542969 239.5625 L 173.398438 239.566406 L 172.871094 245.507812 L 172.222656 247.980469 L 171.558594 249.886719 L 170.882812 251.496094 L 170.199219 252.917969 L 169.515625 254.207031 L 168.824219 255.394531 L 168.132812 256.5 L 167.4375 257.539062 L 166.738281 258.523438 Z M 181.476562 258.019531 "/>
<path fill-rule="nonzero" fill="rgb(66.27451%, 66.27451%, 66.27451%)" fill-opacity="1" stroke-width="0.75" stroke-linecap="round" stroke-linejoin="round" stroke="rgb(66.27451%, 66.27451%, 66.27451%)" stroke-opacity="1" stroke-miterlimit="10" d="M 269.105469 104.050781 L 268.492188 103.011719 L 267.882812 101.917969 L 267.28125 100.761719 L 266.691406 99.523438 L 266.109375 98.183594 L 265.546875 96.710938 L 265.003906 95.050781 L 264.496094 93.097656 L 264.050781 90.578125 L 264.007812 84.617188 L 263.863281 84.597656 L 262.457031 90.394531 L 261.449219 92.746094 L 260.507812 94.53125 L 259.601562 96.023438 L 258.714844 97.328125 L 257.84375 98.5 L 256.984375 99.570312 L 256.136719 100.558594 L 255.292969 101.484375 L 254.457031 102.355469 Z M 269.105469 104.050781 "/>
<path fill-rule="nonzero" fill="rgb(66.27451%, 66.27451%, 66.27451%)" fill-opacity="1" stroke-width="0.75" stroke-linecap="round" stroke-linejoin="round" stroke="rgb(66.27451%, 66.27451%, 66.27451%)" stroke-opacity="1" stroke-miterlimit="10" d="M 255.109375 102.574219 L 254.976562 101.375 L 254.871094 100.128906 L 254.800781 98.828125 L 254.769531 97.457031 L 254.789062 95.996094 L 254.878906 94.421875 L 255.066406 92.6875 L 255.40625 90.695312 L 256.035156 88.21875 L 258.445312 82.761719 L 258.324219 82.6875 L 254.660156 87.394531 L 252.773438 89.125 L 251.183594 90.363281 L 249.742188 91.351562 L 248.398438 92.175781 L 247.125 92.886719 L 245.902344 93.511719 L 244.71875 94.0625 L 243.574219 94.5625 L 242.453125 95.011719 Z M 255.109375 102.574219 "/>
<path fill-rule="nonzero" fill="rgb(90.196078%, 62.352941%, 0%)" fill-opacity="1" stroke-width="0.75" stroke-linecap="round" stroke-linejoin="round" stroke="rgb(0%, 0%, 0%)" stroke-opacity="1" stroke-miterlimit="10" d="M 354.398438 205.714844 C 354.398438 213.421875 348.152344 219.667969 340.445312 219.667969 C 332.738281 219.667969 326.492188 213.421875 326.492188 205.714844 C 326.492188 198.007812 332.738281 191.761719 340.445312 191.761719 C 348.152344 191.761719 354.398438 198.007812 354.398438 205.714844 "/>
<path fill-rule="nonzero" fill="rgb(90.196078%, 62.352941%, 0%)" fill-opacity="1" stroke-width="0.75" stroke-linecap="round" stroke-linejoin="round" stroke="rgb(0%, 0%, 0%)" stroke-opacity="1" stroke-miterlimit="10" d="M 43.90625 288.09375 C 43.90625 295.800781 37.660156 302.050781 29.953125 302.050781 C 22.246094 302.050781 16 295.800781 16 288.09375 C 16 280.390625 22.246094 274.140625 29.953125 274.140625 C 37.660156 274.140625 43.90625 280.390625 43.90625 288.09375 "/>
<path fill-rule="nonzero" fill="rgb(90.196078%, 62.352941%, 0%)" fill-opacity="1" stroke-width="0.75" stroke-linecap="round" stroke-linejoin="round" stroke="rgb(0%, 0%, 0%)" stroke-opacity="1" stroke-miterlimit="10" d="M 264.5 200.207031 C 264.5 207.914062 258.25 214.160156 250.542969 214.160156 C 242.839844 214.160156 236.589844 207.914062 236.589844 200.207031 C 236.589844 192.5 242.839844 186.253906 250.542969 186.253906 C 258.25 186.253906 264.5 192.5 264.5 200.207031 "/>
<path fill-rule="nonzero" fill="rgb(90.196078%, 62.352941%, 0%)" fill-opacity="1" stroke-width="0.75" stroke-linecap="round" stroke-linejoin="round" stroke="rgb(0%, 0%, 0%)" stroke-opacity="1" stroke-miterlimit="10" d="M 194.1875 438.046875 C 194.1875 445.753906 187.941406 452 180.234375 452 C 172.527344 452 166.28125 445.753906 166.28125 438.046875 C 166.28125 430.339844 172.527344 424.09375 180.234375 424.09375 C 187.941406 424.09375 194.1875 430.339844 194.1875 438.046875 "/>
<path fill-rule="nonzero" fill="rgb(90.196078%, 62.352941%, 0%)" fill-opacity="1" stroke-width="0.75" stroke-linecap="round" stroke-linejoin="round" stroke="rgb(0%, 0%, 0%)" stroke-opacity="1" stroke-miterlimit="10" d="M 58.898438 418.203125 C 58.898438 425.90625 52.652344 432.15625 44.945312 432.15625 C 37.242188 432.15625 30.992188 425.90625 30.992188 418.203125 C 30.992188 410.496094 37.242188 404.25 44.945312 404.25 C 52.652344 404.25 58.898438 410.496094 58.898438 418.203125 "/>
<path fill-rule="nonzero" fill="rgb(90.196078%, 62.352941%, 0%)" fill-opacity="1" stroke-width="0.75" stroke-linecap="round" stroke-linejoin="round" stroke="rgb(0%, 0%, 0%)" stroke-opacity="1" stroke-miterlimit="10" d="M 382.691406 356.738281 C 382.691406 364.445312 376.445312 370.695312 368.738281 370.695312 C 361.03125 370.695312 354.785156 364.445312 354.785156 356.738281 C 354.785156 349.035156 361.03125 342.785156 368.738281 342.785156 C 376.445312 342.785156 382.691406 349.035156 382.691406 356.738281 "/>
<path fill-rule="nonzero" fill="rgb(90.196078%, 62.352941%, 0%)" fill-opacity="1" stroke-width="0.75" stroke-linecap="round" stroke-linejoin="round" stroke="rgb(0%, 0%, 0%)" stroke-opacity="1" stroke-miterlimit="10" d="M 416 65.953125 C 416 73.660156 409.753906 79.90625 402.046875 79.90625 C 394.339844 79.90625 388.09375 73.660156 388.09375 65.953125 C 388.09375 58.246094 394.339844 52 402.046875 52 C 409.753906 52 416 58.246094 416 65.953125 "/>
<path fill-rule="nonzero" fill="rgb(90.196078%, 62.352941%, 0%)" fill-opacity="1" stroke-width="0.75" stroke-linecap="round" stroke-linejoin="round" stroke="rgb(0%, 0%, 0%)" stroke-opacity="1" stroke-miterlimit="10" d="M 186.949219 225.617188 C 186.949219 233.324219 180.703125 239.570312 172.996094 239.570312 C 165.289062 239.570312 159.042969 233.324219 159.042969 225.617188 C 159.042969 217.910156 165.289062 211.664062 172.996094 211.664062 C 180.703125 211.664062 186.949219 217.910156 186.949219 225.617188 "/>
<path fill-rule="nonzero" fill="rgb(90.196078%, 62.352941%, 0%)" fill-opacity="1" stroke-width="0.75" stroke-linecap="round" stroke-linejoin="round" stroke="rgb(0%, 0%, 0%)" stroke-opacity="1" stroke-miterlimit="10" d="M 279.496094 70.746094 C 279.496094 78.453125 273.25 84.699219 265.542969 84.699219 C 257.835938 84.699219 251.589844 78.453125 251.589844 70.746094 C 251.589844 63.039062 257.835938 56.792969 265.542969 56.792969 C 273.25 56.792969 279.496094 63.039062 279.496094 70.746094 "/>
<path fill-rule="nonzero" fill="rgb(90.196078%, 62.352941%, 0%)" fill-opacity="1" stroke-width="0.75" stroke-linecap="round" stroke-linejoin="round" stroke="rgb(0%, 0%, 0%)" stroke-opacity="1" stroke-miterlimit="10" d="M 230.851562 338.46875 C 230.851562 346.175781 224.605469 352.421875 216.898438 352.421875 C 209.191406 352.421875 202.945312 346.175781 202.945312 338.46875 C 202.945312 330.761719 209.191406 324.515625 216.898438 324.515625 C 224.605469 324.515625 230.851562 330.761719 230.851562 338.46875 "/>
</svg>
